<svg width="763.9726547895302" height="484.3675323681472" viewBox="0 0 763.9726547895302 484.3675323681472" xmlns="http://www.w3.org/2000/svg" xmlns:xlink="http://www.w3.org/1999/xlink">
  <!-- Generated by: https://github.com/CyberZHG/SVGDiagram -->
  <g id="graph0" class="graph" transform="translate(122.08683245815344,42.18376618407357) scale(1.0)">
    <!-- node_id = node_0 -->
    <ellipse cx="0" cy="0" rx="118.08683245815344" ry="38.18376618407357" fill="floralwhite" stroke="darkgrey" stroke-width="1"/>
    <text x="0" y="0" text-anchor="middle" dominant-baseline="central" font-family="Times,serif" font-size="14">Part the Veil of Snow</text>
    <!-- node_id = node_1 -->
    <ellipse cx="100" cy="80" rx="93.33809511662427" ry="38.18376618407357" fill="lightsalmon" stroke="peru" stroke-width="2"/>
    <text x="100" y="80" text-anchor="middle" dominant-baseline="central" fill="saddlebrown" font-family="Times,serif" font-size="14">The Devil's Wall</text>
    <!-- node_id = node_2 -->
    <ellipse cx="200" cy="160" rx="118.08683245815344" ry="38.18376618407357" fill="papayawhip" stroke="darkgoldenrod" stroke-width="3"/>
    <text x="200" y="160" text-anchor="middle" dominant-baseline="central" fill="goldenrod" font-family="Times,serif" font-size="14">Stranger in the Night</text>
    <!-- node_id = node_3 -->
    <ellipse cx="300" cy="240" rx="123.03657992645928" ry="38.18376618407357" fill="lightgreen" stroke="limegreen" stroke-width="4"/>
    <text x="300" y="240" text-anchor="middle" dominant-baseline="central" fill="olivedrab" font-family="Times,serif" font-size="14">Night on Bald Mountain</text>
    <!-- node_id = node_4 -->
    <ellipse cx="400" cy="320" rx="83.43860018001261" ry="38.18376618407357" fill="deepskyblue" stroke="dodgerblue" stroke-width="5"/>
    <text x="400" y="320" text-anchor="middle" dominant-baseline="central" fill="royalblue" font-family="Times,serif" font-size="14">Exile's Shadow</text>
    <!-- node_id = node_5 -->
    <ellipse cx="500" cy="400" rx="137.88582233137677" ry="38.18376618407357" fill="lightpink" stroke="lightcoral" stroke-width="6"/>
    <text x="500" y="400" text-anchor="middle" dominant-baseline="central" fill="indianred" font-family="Times,serif" font-size="14">Songs and Dances of Death</text>
    <!-- edge_id = node_0 -> node_1 -->
    <path d="M -42.17973025822573 36.15405450705062 C -46.81644188185478 40.12837875587552 -78.568736857944 54.47209357687239 -70 60 C -61.431263142056 65.5279064231276 -3.9727575921347604 67.76791087151355 9.232690889438288 69.32149304581627" fill="none" marker-end="url(#arrow_type_normal__fill_darkgrey__stroke_none)" stroke="darkgrey" stroke-width="1"/>
    <!-- edge_id = node_1 -> node_2 -->
    <path d="M 58.86121532122799 115.26181543894742 C 54.05101276768999 119.38484619912285 25.262361277316835 134.75369379556327 30.000000000000004 140 C 34.73763872268317 145.24630620443673 77.73920638110584 145.61637722130658 87.28704765732701 146.7396526655679" fill="none" marker-end="url(#arrow_type_normal__fill_peru__stroke_none)" stroke="peru" stroke-width="1.25"/>
    <!-- edge_id = node_2 -> node_3 -->
    <path d="M 156.82495197047422 197.00718402530782 C 152.35412664206186 200.83932002108986 125.7068924911004 215.13681308218128 130 220 C 134.2931075088996 224.86318691781872 173.81966418655986 225.1552546101835 182.58359702387182 226.18630553222022" fill="none" marker-end="url(#arrow_type_normal__fill_darkgoldenrod__stroke_none)" stroke="darkgoldenrod" stroke-width="1.5"/>
    <!-- edge_id = node_3 -> node_4 -->
    <path d="M 256.10301142442444 277.62599020763616 C 251.7525095203537 281.3549918396968 219.91746819289304 294.57299440191844 229.99999999999997 300 C 240.0825318071069 305.42700559808156 302.1651685558884 308.49001983010453 316.5982022670661 310.18802379612544" fill="none" marker-end="url(#arrow_type_normal__fill_limegreen__stroke_none)" stroke="limegreen" stroke-width="1.75"/>
    <!-- edge_id = node_4 -> node_5 -->
    <path d="M 358.4514634495735 355.613031328937 C 353.7095528746446 359.6775261074475 328.19158690174737 375.16487890699756 330 380 C 331.80841309825263 384.83512109300244 362.7516183659078 383.85313157245974 369.30194203908934 384.6237578869517" fill="none" marker-end="url(#arrow_type_normal__fill_dodgerblue__stroke_none)" stroke="dodgerblue" stroke-width="2"/>
  </g>
  <defs>
    <marker id="arrow_type_normal__fill_darkgrey__stroke_none" markerWidth="10" markerHeight="7" refX="10" refY="3.5" orient="auto-start-reverse">
      <polygon points="0 0 10 3.5 0 7" fill="darkgrey" stroke="none"/>
    </marker>
    <marker id="arrow_type_normal__fill_peru__stroke_none" markerWidth="10" markerHeight="7" refX="10" refY="3.5" orient="auto-start-reverse">
      <polygon points="0 0 10 3.5 0 7" fill="peru" stroke="none"/>
    </marker>
    <marker id="arrow_type_normal__fill_darkgoldenrod__stroke_none" markerWidth="10" markerHeight="7" refX="10" refY="3.5" orient="auto-start-reverse">
      <polygon points="0 0 10 3.5 0 7" fill="darkgoldenrod" stroke="none"/>
    </marker>
    <marker id="arrow_type_normal__fill_limegreen__stroke_none" markerWidth="10" markerHeight="7" refX="10" refY="3.5" orient="auto-start-reverse">
      <polygon points="0 0 10 3.5 0 7" fill="limegreen" stroke="none"/>
    </marker>
    <marker id="arrow_type_normal__fill_dodgerblue__stroke_none" markerWidth="10" markerHeight="7" refX="10" refY="3.5" orient="auto-start-reverse">
      <polygon points="0 0 10 3.5 0 7" fill="dodgerblue" stroke="none"/>
    </marker>
  </defs>
</svg>
