<svg width="807.5767946737235" height="484.3675323681472" viewBox="0 0 807.5767946737235 484.3675323681472" xmlns="http://www.w3.org/2000/svg" xmlns:xlink="http://www.w3.org/1999/xlink">
  <!-- Generated by: https://github.com/CyberZHG/SVGDiagram -->
  <g id="graph0" class="graph" transform="translate(165.6909723423468,42.18376618407357) scale(1.0)">
    <!-- Node: node_0 -->
    <g class="node" id="node_0">
      <title>node_0</title>
      <ellipse cx="0" cy="0" rx="118.08683245815344" ry="38.18376618407357" fill="floralwhite" stroke="darkgrey" stroke-width="1"/>
      <text x="0" y="0" text-anchor="middle" dominant-baseline="central" font-family="Times,serif" font-size="14">Part the Veil of Snow</text>
    </g>
    <!-- Node: node_1 -->
    <g class="node" id="node_1">
      <title>node_1</title>
      <ellipse cx="100" cy="80" rx="93.33809511662427" ry="38.18376618407357" fill="lightsalmon" stroke="peru" stroke-width="2"/>
      <text x="100" y="80" text-anchor="middle" dominant-baseline="central" fill="saddlebrown" font-family="Times,serif" font-size="14">The Devil's Wall</text>
    </g>
    <!-- Node: node_2 -->
    <g class="node" id="node_2">
      <title>node_2</title>
      <ellipse cx="200" cy="160" rx="118.08683245815344" ry="38.18376618407357" fill="papayawhip" stroke="darkgoldenrod" stroke-width="3"/>
      <text x="200" y="160" text-anchor="middle" dominant-baseline="central" fill="goldenrod" font-family="Times,serif" font-size="14">Stranger in the Night</text>
    </g>
    <!-- Node: node_3 -->
    <g class="node" id="node_3">
      <title>node_3</title>
      <ellipse cx="300" cy="240" rx="123.03657992645928" ry="38.18376618407357" fill="lightgreen" stroke="limegreen" stroke-width="4"/>
      <text x="300" y="240" text-anchor="middle" dominant-baseline="central" fill="olivedrab" font-family="Times,serif" font-size="14">Night on Bald Mountain</text>
    </g>
    <!-- Node: node_4 -->
    <g class="node" id="node_4">
      <title>node_4</title>
      <ellipse cx="400" cy="320" rx="83.43860018001261" ry="38.18376618407357" fill="deepskyblue" stroke="dodgerblue" stroke-width="5"/>
      <text x="400" y="320" text-anchor="middle" dominant-baseline="central" fill="royalblue" font-family="Times,serif" font-size="14">Exile's Shadow</text>
    </g>
    <!-- Node: node_5 -->
    <g class="node" id="node_5">
      <title>node_5</title>
      <ellipse cx="500" cy="400" rx="137.88582233137677" ry="38.18376618407357" fill="lightpink" stroke="lightcoral" stroke-width="6"/>
      <text x="500" y="400" text-anchor="middle" dominant-baseline="central" fill="indianred" font-family="Times,serif" font-size="14">Songs and Dances of Death</text>
    </g>
    <!-- Edge: edge1 (node_0 -> node_1) -->
    <g class="edge" id="edge1">
      <title>node_0->node_1</title>
      <path d="M -74.7610996197356 29.904439847894253 C -87.30091634977967 34.920366539911875 -161.6909723423468 53.045610182191105 -150 60 C -138.3090276576532 66.95438981780889 -28.8460546380456 69.69231562895634 -4.615265565654722 71.63077875474761" fill="none" stroke="darkgrey" stroke-width="1"/>
      <polygon points="5.352887219706528,72.4282309775765 -4.894373843644838,75.11963222962405 -4.336157287664607,68.14192527987116 5.352887219706528,72.4282309775765" fill="darkgrey" stroke="darkgrey" stroke-width="1"/>
    </g>
    <!-- Edge: edge2 (node_1 -> node_2) -->
    <g class="edge" id="edge2">
      <title>node_1->node_2</title>
      <path d="M 32.234417492170195 107.10623300313193 C 18.528681243475162 112.58852750260995 -56.50445245814815 132.90089040397453 -50 140 C -43.49554754185185 147.09910959602547 51.05094353421593 148.08407548273726 71.26113224105912 149.70089057928473" fill="none" stroke="peru" stroke-width="1.25"/>
      <polygon points="81.22928502642037,150.49834280211363 70.98202396306901,153.18974405416117 71.54024051904923,146.2120371044083 81.22928502642037,150.49834280211363" fill="peru" stroke="peru" stroke-width="1.25"/>
    </g>
    <!-- Edge: edge3 (node_2 -> node_3) -->
    <g class="edge" id="edge3">
      <title>node_2->node_3</title>
      <path d="M 123.83096075405729 190.4676156983771 C 111.52580062838108 195.38967974864758 43.02506018055977 213.5355279541202 50 220 C 56.97493981944023 226.4644720458798 146.40049972558222 227.71203997804656 165.68059967069868 229.25444797365589" fill="none" stroke="darkgoldenrod" stroke-width="1.5"/>
      <polygon points="175.64875245605992,230.05190019648478 165.40149139270855,232.74330144853232 165.9597079486888,225.76559449877945 175.64875245605992,230.05190019648478" fill="darkgoldenrod" stroke="darkgoldenrod" stroke-width="1.5"/>
    </g>
    <!-- Edge: edge4 (node_3 -> node_4) -->
    <g class="edge" id="edge4">
      <title>node_3->node_4</title>
      <path d="M 221.8716658126102 271.2513336749559 C 209.8930548438418 276.04277806246324 136.6828945301508 293.18489829740327 150 300 C 163.3171054698492 306.81510170259673 276.47858219308785 310.11828657544703 301.7742986317054 312.1419438905364" fill="none" stroke="limegreen" stroke-width="1.75"/>
      <polygon points="311.74245141706666,312.9393961133653 301.4951903537153,315.63079736541283 302.0534069096955,308.65309041565996 311.74245141706666,312.9393961133653" fill="limegreen" stroke="limegreen" stroke-width="1.75"/>
    </g>
    <!-- Edge: edge5 (node_4 -> node_5) -->
    <g class="edge" id="edge5">
      <title>node_4->node_5</title>
      <path d="M 334.5421503940243 346.18313984239023 C 320.45179199502024 351.8192832019919 247.40374205520692 373.02892733289457 250 380 C 252.59625794479308 386.97107266710543 333.4330817189857 386.67464653751887 350.11969806278285 388.00957584502265" fill="none" stroke="dodgerblue" stroke-width="2"/>
      <polygon points="360.0878508481441,388.80702806785155 349.84058978479277,391.49842931989906 350.398806340773,384.5207223701462 360.0878508481441,388.80702806785155" fill="dodgerblue" stroke="dodgerblue" stroke-width="2"/>
    </g>
  </g>
</svg>
