<svg width="689" height="462" viewBox="0 0 689 462" xmlns="http://www.w3.org/2000/svg" xmlns:xlink="http://www.w3.org/1999/xlink">
  <!-- Generated by: https://github.com/CyberZHG/SVGDiagram -->
  <g id="graph0" class="graph" transform="translate(87.5,31) scale(1.0)">
    <!-- node_id = node_0 -->
    <rect x="-83.5" y="-27" width="167" height="54" fill="floralwhite" stroke="darkgrey" stroke-width="1"/>
    <text x="0" y="0" text-anchor="middle" dominant-baseline="central" font-family="Times,serif" font-size="14">Part the Veil of Snow</text>
    <!-- node_id = node_1 -->
    <rect x="34" y="53" width="132" height="54" fill="lightsalmon" stroke="peru" stroke-width="2"/>
    <text x="100" y="80" text-anchor="middle" dominant-baseline="central" fill="saddlebrown" font-family="Times,serif" font-size="14">The Devil's Wall</text>
    <!-- node_id = node_2 -->
    <rect x="116.5" y="133" width="167" height="54" fill="papayawhip" stroke="darkgoldenrod" stroke-width="3"/>
    <text x="200" y="160" text-anchor="middle" dominant-baseline="central" fill="goldenrod" font-family="Times,serif" font-size="14">Stranger in the Night</text>
    <!-- node_id = node_3 -->
    <rect x="213" y="213" width="174" height="54" fill="lightgreen" stroke="limegreen" stroke-width="4"/>
    <text x="300" y="240" text-anchor="middle" dominant-baseline="central" fill="olivedrab" font-family="Times,serif" font-size="14">Night on Bald Mountain</text>
    <!-- node_id = node_4 -->
    <rect x="341" y="293" width="118" height="54" fill="deepskyblue" stroke="dodgerblue" stroke-width="5"/>
    <text x="400" y="320" text-anchor="middle" dominant-baseline="central" fill="royalblue" font-family="Times,serif" font-size="14">Exile's Shadow</text>
    <!-- node_id = node_5 -->
    <rect x="402.5" y="373" width="195" height="54" fill="lightpink" stroke="lightcoral" stroke-width="6"/>
    <text x="500" y="400" text-anchor="middle" dominant-baseline="central" fill="indianred" font-family="Times,serif" font-size="14">Songs and Dances of Death</text>
    <!-- edge_id = node_0 -> node_1 -->
    <path d="M -22.916666666666675 27.500000000000004 C -27.430555555555564 32.91666666666667 -59.31944444444445 52.73888888888889 -50 60 C -40.68055555555555 67.26111111111112 19.16666666666668 69.22222222222223 33.000000000000014 71.06666666666668" fill="none" marker-end="url(#arrow_type_normal__fill_darkgrey__stroke_none)" stroke="darkgrey" stroke-width="1"/>
    <!-- edge_id = node_1 -> node_2 -->
    <path d="M 76.66666666666666 108 C 72.22222222222221 113.33333333333333 43.61111111111111 133.22222222222223 50 140 C 56.38888888888889 146.77777777777777 104.16666666666667 147.22222222222223 115 148.66666666666669" fill="none" marker-end="url(#arrow_type_normal__fill_peru__stroke_none)" stroke="peru" stroke-width="1.25"/>
    <!-- edge_id = node_2 -> node_3 -->
    <path d="M 176.25 188.5 C 171.875 193.75 144.20833333333334 213.39444444444445 150 220 C 155.79166666666666 226.60555555555555 200.83333333333334 226.7777777777778 211 228.13333333333335" fill="none" marker-end="url(#arrow_type_normal__fill_darkgoldenrod__stroke_none)" stroke="darkgoldenrod" stroke-width="1.5"/>
    <!-- edge_id = node_3 -> node_4 -->
    <path d="M 275.8333333333333 269 C 271.52777777777777 274.1666666666667 239.55555555555554 292.8666666666667 250 300 C 260.44444444444446 307.1333333333333 323.75 309.83333333333337 338.5 311.8" fill="none" marker-end="url(#arrow_type_normal__fill_limegreen__stroke_none)" stroke="limegreen" stroke-width="1.75"/>
    <!-- edge_id = node_4 -> node_5 -->
    <path d="M 375.4166666666667 349.5 C 371.18055555555554 354.5833333333333 345.9861111111111 373.81666666666666 350 380 C 354.0138888888889 386.18333333333334 391.25 385.5 399.5 386.6" fill="none" marker-end="url(#arrow_type_normal__fill_dodgerblue__stroke_none)" stroke="dodgerblue" stroke-width="2"/>
  </g>
  <defs>
    <marker id="arrow_type_normal__fill_darkgrey__stroke_none" markerWidth="10" markerHeight="7" refX="10" refY="3.5" orient="auto-start-reverse">
      <polygon points="0 0 10 3.5 0 7" fill="darkgrey" stroke="none"/>
    </marker>
    <marker id="arrow_type_normal__fill_peru__stroke_none" markerWidth="10" markerHeight="7" refX="10" refY="3.5" orient="auto-start-reverse">
      <polygon points="0 0 10 3.5 0 7" fill="peru" stroke="none"/>
    </marker>
    <marker id="arrow_type_normal__fill_darkgoldenrod__stroke_none" markerWidth="10" markerHeight="7" refX="10" refY="3.5" orient="auto-start-reverse">
      <polygon points="0 0 10 3.5 0 7" fill="darkgoldenrod" stroke="none"/>
    </marker>
    <marker id="arrow_type_normal__fill_limegreen__stroke_none" markerWidth="10" markerHeight="7" refX="10" refY="3.5" orient="auto-start-reverse">
      <polygon points="0 0 10 3.5 0 7" fill="limegreen" stroke="none"/>
    </marker>
    <marker id="arrow_type_normal__fill_dodgerblue__stroke_none" markerWidth="10" markerHeight="7" refX="10" refY="3.5" orient="auto-start-reverse">
      <polygon points="0 0 10 3.5 0 7" fill="dodgerblue" stroke="none"/>
    </marker>
  </defs>
</svg>
