<svg width="198.52691193458116" height="84.30389239614948" viewBox="0 0 198.52691193458116 84.30389239614948" xmlns="http://www.w3.org/2000/svg" xmlns:xlink="http://www.w3.org/1999/xlink">
  <!-- Generated by: https://github.com/CyberZHG/SVGDiagram -->
  <g id="graph0" class="graph" transform="translate(24.263455967290593,42.15194619807474) scale(1.0)">
    <!-- Node: A -->
    <g class="node" id="A">
      <title>A</title>
      <ellipse cx="0" cy="0" rx="16.263455967290593" ry="15.556349186104047" fill="none" stroke="black"/>
      <text x="0" y="0" text-anchor="middle" dominant-baseline="central" font-family="Times,serif" font-size="14">A</text>
    </g>
    <!-- Node: B -->
    <g class="node" id="B">
      <title>B</title>
      <ellipse cx="150" cy="0" rx="16.263455967290593" ry="15.556349186104047" fill="none" stroke="black"/>
      <text x="150" y="0" text-anchor="middle" dominant-baseline="central" font-family="Times,serif" font-size="14">B</text>
    </g>
    <!-- Edge: edge1 (A -> B) -->
    <g class="edge" id="edge1">
      <title>A->B</title>
      <path d="M 16.149252587006856 4.306467356535163 C 28.649252587006856 7.639800689868496 55.38308419566896 20 75 20 C 94.61691580433104 20 121.35074741299314 7.639800689868496 122.9101077456729 7.8911371523868485" fill="none" stroke="black"/>
      <polygon points="132.4124385565834,4.777725205386412 123.99928133815153,11.217351407111781 121.81975811080903,4.565308224639605 132.4124385565834,4.777725205386412" fill="black" stroke="black"/>
      <text x="75.33949758831531" y="27.151946198074743" text-anchor="middle" dominant-baseline="central" font-family="Times,serif" font-size="14">A → B</text>
    </g>
    <!-- Edge: edge2 (B -> A) -->
    <g class="edge" id="edge2">
      <title>B->A</title>
      <path d="M 133.85074741299314 -4.306467356535162 C 121.35074741299314 -7.639800689868496 94.61691580433104 -20 75 -20 C 55.38308419566896 -20 28.649252587006856 -7.639800689868496 27.089892254327093 -7.8911371523868485" fill="none" stroke="black"/>
      <polygon points="17.5875614434166,-4.777725205386412 26.00071866184846,-11.21735140711178 28.180241889190956,-4.565308224639604 17.5875614434166,-4.777725205386412" fill="black" stroke="black"/>
      <text x="74.66050241168469" y="-27.151946198074743" text-anchor="middle" dominant-baseline="central" font-family="Times,serif" font-size="14">A ← B</text>
    </g>
  </g>
</svg>
