<svg width="198.52691193458116" height="84.30389239614948" viewBox="0 0 198.52691193458116 84.30389239614948" xmlns="http://www.w3.org/2000/svg" xmlns:xlink="http://www.w3.org/1999/xlink">
  <!-- Generated by: https://github.com/CyberZHG/SVGDiagram -->
  <g id="graph0" class="graph" transform="translate(24.263455967290593,42.15194619807474) scale(1.0)">
    <!-- Node: A -->
    <g class="node" id="A">
      <title>A</title>
      <ellipse cx="0" cy="0" rx="16.263455967290593" ry="15.556349186104047" fill="none" stroke="black"/>
      <rect x="-3.5" y="-7" width="7" height="14" fill="none" stroke="blue"/>
      <rect x="-11.5" y="-11" width="23" height="22" fill="none" stroke="red"/>
      <text x="0" y="0" text-anchor="middle" dominant-baseline="central" font-family="Times,serif" font-size="14">A</text>
    </g>
    <!-- Node: B -->
    <g class="node" id="B">
      <title>B</title>
      <ellipse cx="150" cy="0" rx="16.263455967290593" ry="15.556349186104047" fill="none" stroke="black"/>
      <rect x="146.5" y="-7" width="7" height="14" fill="none" stroke="blue"/>
      <rect x="138.5" y="-11" width="23" height="22" fill="none" stroke="red"/>
      <text x="150" y="0" text-anchor="middle" dominant-baseline="central" font-family="Times,serif" font-size="14">B</text>
    </g>
    <!-- Edge: edge1 (A -> B) -->
    <g class="edge" id="edge1">
      <title>A->B</title>
      <line x1="16.149252587006856" y1="4.306467356535163" x2="28.649252587006856" y2="7.639800689868496" stroke="blue"/>
      <line x1="55.38308419566896" y1="20" x2="75" y2="20" stroke="blue"/>
      <line x1="75" y1="20" x2="94.61691580433104" y2="20" stroke="blue"/>
      <line x1="121.35074741299314" y1="7.639800689868496" x2="133.85074741299314" y2="4.306467356535162" stroke="blue"/>
      <path d="M 16.149252587006856 4.306467356535163 C 28.649252587006856 7.639800689868496 55.38308419566896 20 75 20 C 94.61691580433104 20 121.35074741299314 7.639800689868496 122.9101077456729 7.8911371523868485" fill="none" stroke="black"/>
      <polygon points="132.4124385565834,4.777725205386412 123.99928133815153,11.217351407111781 121.81975811080903,4.565308224639605 132.4124385565834,4.777725205386412" fill="black" stroke="black"/>
      <rect x="50.83949758831531" y="20.151946198074743" width="49" height="14" fill="none" stroke="blue"/>
      <rect x="50.83949758831531" y="20.151946198074743" width="49" height="14" fill="none" stroke="red"/>
      <text x="75.33949758831531" y="27.151946198074743" text-anchor="middle" dominant-baseline="central" font-family="Times,serif" font-size="14">A → B</text>
    </g>
    <!-- Edge: edge2 (B -> A) -->
    <g class="edge" id="edge2">
      <title>B->A</title>
      <line x1="133.85074741299314" y1="-4.306467356535162" x2="121.35074741299314" y2="-7.639800689868496" stroke="blue"/>
      <line x1="94.61691580433104" y1="-20" x2="75" y2="-20" stroke="blue"/>
      <line x1="75" y1="-20" x2="55.38308419566896" y2="-20" stroke="blue"/>
      <line x1="28.649252587006856" y1="-7.639800689868496" x2="16.149252587006856" y2="-4.306467356535163" stroke="blue"/>
      <path d="M 133.85074741299314 -4.306467356535162 C 121.35074741299314 -7.639800689868496 94.61691580433104 -20 75 -20 C 55.38308419566896 -20 28.649252587006856 -7.639800689868496 27.089892254327093 -7.8911371523868485" fill="none" stroke="black"/>
      <polygon points="17.5875614434166,-4.777725205386412 26.00071866184846,-11.21735140711178 28.180241889190956,-4.565308224639604 17.5875614434166,-4.777725205386412" fill="black" stroke="black"/>
      <rect x="50.16050241168469" y="-34.15194619807474" width="49" height="14" fill="none" stroke="blue"/>
      <rect x="50.16050241168469" y="-34.15194619807474" width="49" height="14" fill="none" stroke="red"/>
      <text x="74.66050241168469" y="-27.151946198074743" text-anchor="middle" dominant-baseline="central" font-family="Times,serif" font-size="14">A ← B</text>
    </g>
  </g>
</svg>
