<svg width="198.52691193458116" height="84.3210103955868" viewBox="0 0 198.52691193458116 84.3210103955868" xmlns="http://www.w3.org/2000/svg" xmlns:xlink="http://www.w3.org/1999/xlink">
  <!-- Generated by: https://github.com/CyberZHG/SVGDiagram -->
  <g id="graph0" class="graph" transform="translate(24.263455967290593,42.1605051977934) scale(1.0)">
    <!-- Node: A -->
    <g class="node" id="A">
      <title>A</title>
      <ellipse cx="0" cy="0" rx="16.263455967290593" ry="15.556349186104047" fill="none" stroke="black"/>
      <text x="0" y="0" text-anchor="middle" dominant-baseline="central" font-family="Times,serif" font-size="14">A</text>
    </g>
    <!-- Node: B -->
    <g class="node" id="B">
      <title>B</title>
      <ellipse cx="150" cy="0" rx="16.263455967290593" ry="15.556349186104047" fill="none" stroke="black"/>
      <text x="150" y="0" text-anchor="middle" dominant-baseline="central" font-family="Times,serif" font-size="14">B</text>
    </g>
    <!-- Edge: edge1 (A -> B) -->
    <g class="edge" id="edge1">
      <title>A->B</title>
      <path d="M 16.149252587006856 4.306467356535163 C 25.957710489172378 6.922056130445969 55.38308419566896 20 75 20 C 89.59498535842229 20 109.61930527017769 12.760887262222539 122.95468501222672 7.977281565099194" fill="none" stroke="black"/>
      <polygon points="132.41641258196557,4.789685649888913 124.05716974844069,11.299144863230888 121.82233059019944,4.665481174379028 132.41641258196557,4.789685649888913" fill="black" stroke="black"/>
      <text x="75.34227937452313" y="27.160505197793402" text-anchor="middle" dominant-baseline="central" font-family="Times,serif" font-size="14">A → B</text>
    </g>
    <!-- Edge: edge2 (B -> A) -->
    <g class="edge" id="edge2">
      <title>B->A</title>
      <path d="M 133.85074741299314 -4.306467356535162 C 124.04228951082762 -6.922056130445968 94.61691580433104 -20 75 -20 C 60.40501464157771 -20 40.38069472982231 -12.760887262222539 27.045314987773285 -7.977281565099194" fill="none" stroke="black"/>
      <polygon points="17.58358741803443,-4.789685649888912 25.942830251559332,-11.299144863230875 28.177669409800554,-4.665481174379016 17.58358741803443,-4.789685649888912" fill="black" stroke="black"/>
      <text x="74.65772062547686" y="-27.160505197793402" text-anchor="middle" dominant-baseline="central" font-family="Times,serif" font-size="14">A ← B</text>
    </g>
  </g>
</svg>
