<svg width="198.52691193458116" height="89.32094387459034" viewBox="0 0 198.52691193458116 89.32094387459034" xmlns="http://www.w3.org/2000/svg" xmlns:xlink="http://www.w3.org/1999/xlink">
  <!-- Generated by: https://github.com/CyberZHG/SVGDiagram -->
  <g id="graph0" class="graph" transform="translate(24.263455967290593,44.66047193729517) scale(1.0)">
    <!-- Node: A -->
    <g class="node" id="A">
      <title>A</title>
      <ellipse cx="0" cy="0" rx="16.263455967290593" ry="15.556349186104047" fill="none" stroke="black"/>
      <text x="0" y="0" text-anchor="middle" dominant-baseline="central" font-family="Times,serif" font-size="14">A</text>
    </g>
    <!-- Node: B -->
    <g class="node" id="B">
      <title>B</title>
      <ellipse cx="150" cy="0" rx="16.263455967290593" ry="15.556349186104047" fill="none" stroke="black"/>
      <text x="150" y="0" text-anchor="middle" dominant-baseline="central" font-family="Times,serif" font-size="14">B</text>
    </g>
    <!-- Edge: edge1 (A -> B) -->
    <g class="edge" id="edge1">
      <title>A->B</title>
      <path d="M 15.956005599086607 4.254934826423097 C 25.796671332572174 6.87911235535258 57.20500782675455 19.496976188339815 75 20 C 92.79499217324545 20.503023811660185 114.7716321987994 9.394231413653497 122.72595863855928 7.273077696384196" fill="none" stroke="black"/>
      <polygon points="132.38830803457174,4.6964511907808735 123.62777791552044,10.654899984988559 121.82413936159811,3.891255407779833 132.38830803457174,4.6964511907808735" fill="black" stroke="black"/>
      <text x="67.57489817588312" y="29.660471937295174" text-anchor="middle" dominant-baseline="central" font-family="Times,serif" font-size="14">A → B</text>
    </g>
    <!-- Edge: edge2 (B -> A) -->
    <g class="edge" id="edge2">
      <title>B->A</title>
      <path d="M 134.0439944009134 -4.254934826423096 C 124.20332866742783 -6.87911235535258 92.79499217324545 -19.496976188339815 75 -20 C 57.20500782675455 -20.503023811660185 35.22836780120061 -9.394231413653499 27.274041361440737 -7.273077696384198" fill="none" stroke="black"/>
      <polygon points="17.611691965428275,-4.696451190780874 26.372222084479574,-10.65489998498856 28.1758606384019,-3.8912554077798363 17.611691965428275,-4.696451190780874" fill="black" stroke="black"/>
      <text x="82.42510182411687" y="-29.660471937295174" text-anchor="middle" dominant-baseline="central" font-family="Times,serif" font-size="14">A ← B</text>
    </g>
  </g>
</svg>
