<svg width="198.52691193458116" height="84.97061802732173" viewBox="0 0 198.52691193458116 84.97061802732173" xmlns="http://www.w3.org/2000/svg" xmlns:xlink="http://www.w3.org/1999/xlink">
  <!-- Generated by: https://github.com/CyberZHG/SVGDiagram -->
  <g id="graph0" class="graph" transform="translate(24.263455967290593,42.48530901366087) scale(1.0)">
    <!-- Node: A -->
    <g class="node" id="A">
      <title>A</title>
      <ellipse cx="0" cy="0" rx="16.263455967290593" ry="15.556349186104047" fill="none" stroke="black"/>
      <text x="0" y="0" text-anchor="middle" dominant-baseline="central" font-family="Times,serif" font-size="14">A</text>
    </g>
    <!-- Node: B -->
    <g class="node" id="B">
      <title>B</title>
      <ellipse cx="150" cy="0" rx="16.263455967290593" ry="15.556349186104047" fill="none" stroke="black"/>
      <text x="150" y="0" text-anchor="middle" dominant-baseline="central" font-family="Times,serif" font-size="14">B</text>
    </g>
    <!-- Edge: edge1 (A -> B) -->
    <g class="edge" id="edge1">
      <title>A->B</title>
      <path d="M 16.16445925229366 4.253805066393069 C 26.137049376911385 6.8781708886608905 56.38298833714232 19.982234593472704 76 20 C 90.51658863051469 20.0131464008302 109.95505225956862 12.869964190134144 122.9898830286656 8.098363697008034" fill="none" stroke="black"/>
      <polygon points="132.43515503762706,4.852316451668247 124.11559302288195,11.412414612733398 121.84051416396609,4.792443601791271 132.43515503762706,4.852316451668247" fill="black" stroke="black"/>
      <text x="74.95783245851682" y="27.485309013660867" text-anchor="middle" dominant-baseline="central" font-family="Times,serif" font-size="14">A → B</text>
    </g>
    <!-- Edge: edge2 (B -> A) -->
    <g class="edge" id="edge2">
      <title>B->A</title>
      <path d="M 133.8665292294397 -4.360397505556843 C 124.22210769119974 -6.96699792129737 95.61701166285768 -20.017765406527296 76 -20 C 61.32647527618246 -19.986711475917584 40.70602321377539 -12.651586708751786 27.071524247700612 -7.857207005616996" fill="none" stroke="black"/>
      <polygon points="17.601604582751737,-4.72859936466671 25.998896502356267,-11.1889003187202 28.194775475660798,-4.5422383343404436 17.601604582751737,-4.72859936466671" fill="black" stroke="black"/>
      <text x="74.9578324585168" y="-27.485309013660864" text-anchor="middle" dominant-baseline="central" font-family="Times,serif" font-size="14">A ← B</text>
    </g>
  </g>
</svg>
