<svg width="294.4479340464418" height="136.55267831984492" viewBox="0 0 294.4479340464418 136.55267831984492" xmlns="http://www.w3.org/2000/svg" xmlns:xlink="http://www.w3.org/1999/xlink">
  <!-- Generated by: https://github.com/CyberZHG/SVGDiagram -->
  <g id="graph0" class="graph" transform="translate(143.0263984774368,68.20235890523034) scale(1.0)">
    <!-- Node: A -->
    <g class="node" id="A">
      <title>A</title>
      <ellipse cx="0" cy="0" rx="70.71067811865476" ry="15.556349186104047" fill="none" stroke="black"/>
      <text x="0" y="0" text-anchor="middle" dominant-baseline="central" font-family="Times,serif" font-size="14">Self&#160;Loops</text>
    </g>
    <!-- Edge: edge1 (A -> A) -->
    <g class="edge" id="edge1">
      <title>A-&gt;A</title>
      <path d="M -45.84974283837453 -12.285401566717121 C -62.72474283837453 -23.535401566717123 -101.21067811865476 -11.250000000000012 -101.21067811865476 -1.2394733299754361e-14 C -101.21067811865476 9.236249999999988 -75.2695798163994 19.170403107431564 -56.64424984481699 16.205280047392073" fill="none" stroke="black"/>
      <polygon points="-47.27239010714305,12.802016583142446 -55.47718476598293,19.505101291414643 -57.8664806273413,12.925491478751297 -47.27239010714305,12.802016583142446" fill="black" stroke="black"/>
      <text x="-118.22639847743679" y="0.7482516524652603" text-anchor="middle" dominant-baseline="central" font-family="Times,serif" font-size="14">Left</text>
    </g>
    <!-- Edge: edge2 (A -> A) -->
    <g class="edge" id="edge2">
      <title>A-&gt;A</title>
      <path d="M 45.84974283837457 12.285401566717114 C 62.72474283837457 23.535401566717113 101.21067811865476 11.25 101.21067811865476 0 C 101.21067811865476 -9.23625 75.26957981639941 -19.17040310743157 56.644249844817004 -16.205280047392073" fill="none" stroke="black"/>
      <polygon points="47.27239010714307,-12.802016583142448 55.47718476598295,-19.505101291414647 57.86648062734132,-12.925491478751301 47.27239010714307,-12.802016583142448" fill="black" stroke="black"/>
      <text x="122.42153556900496" y="-0.8910822077932149" text-anchor="middle" dominant-baseline="central" font-family="Times,serif" font-size="14">Right</text>
    </g>
    <!-- Edge: edge3 (A -> A) -->
    <g class="edge" id="edge3">
      <title>A-&gt;A</title>
      <path d="M 4.294455277987731 -16.02712528828254 C 15.544455277987732 -32.90212528828254 11.250000000000004 -46.05634918610404 2.8201380305587566e-15 -46.05634918610404 C -8.831249999999997 -46.05634918610404 -13.376319453677986 -37.95038756466899 -9.480437756259525 -26.301768520576918" fill="none" stroke="black"/>
      <polygon points="-4.976447411956316,-17.37831108443923 -12.606928845839935,-24.728532379553915 -6.357821622782679,-27.88268185520241 -4.976447411956316,-17.37831108443923" fill="black" stroke="black"/>
      <text x="-0.25216526828713204" y="-53.20235890523034" text-anchor="middle" dominant-baseline="central" font-family="Times,serif" font-size="14">Top</text>
    </g>
    <!-- Edge: edge4 (A -> A) -->
    <g class="edge" id="edge4">
      <title>A-&gt;A</title>
      <path d="M -4.29445527798773 16.02712528828254 C -15.54445527798773 32.90212528828254 -11.249999999999996 46.05634918610404 2.8201380305587566e-15 46.05634918610404 C 8.831250000000002 46.05634918610404 13.376319453677988 37.95038756466899 9.480437756259526 26.301768520576918" fill="none" stroke="black"/>
      <polygon points="4.976447411956316,17.378311084439233 12.606928845839931,24.728532379553922 6.357821622782676,27.882681855202414 4.976447411956316,17.378311084439233" fill="black" stroke="black"/>
      <text x="0.2539029930509949" y="53.35031941461459" text-anchor="middle" dominant-baseline="central" font-family="Times,serif" font-size="14">Bottom</text>
    </g>
  </g>
</svg>
