<svg width="200.50681092190354" height="140.4157531948827" viewBox="0 0 200.50681092190354 140.4157531948827" xmlns="http://www.w3.org/2000/svg" xmlns:xlink="http://www.w3.org/1999/xlink">
  <!-- Generated by: https://github.com/CyberZHG/SVGDiagram -->
  <g id="graph0" class="graph" transform="translate(25.25340546095176,32.415753194882726) scale(1.0)">
    <!-- Node: A0 -->
    <g class="node" id="A0">
      <title>A0</title>
      <ellipse cx="0" cy="0" rx="17.25340546095176" ry="15.556349186104047" fill="none" stroke="black"/>
      <rect x="-4.2" y="-7" width="8.4" height="14" fill="none" stroke="blue"/>
      <rect x="-12.2" y="-11" width="24.4" height="22" fill="none" stroke="red"/>
      <text x="0" y="0" text-anchor="middle" dominant-baseline="central" font-family="Times,serif" font-size="14">A</text>
    </g>
    <!-- Node: B0 -->
    <g class="node" id="B0">
      <title>B0</title>
      <ellipse cx="150" cy="0" rx="17.25340546095176" ry="15.556349186104047" fill="none" stroke="black"/>
      <rect x="145.8" y="-7" width="8.4" height="14" fill="none" stroke="blue"/>
      <rect x="137.8" y="-11" width="24.4" height="22" fill="none" stroke="red"/>
      <text x="150" y="0" text-anchor="middle" dominant-baseline="central" font-family="Times,serif" font-size="14">B</text>
    </g>
    <!-- Node: A1 -->
    <g class="node" id="A1">
      <title>A1</title>
      <ellipse cx="0" cy="80" rx="17.25340546095176" ry="15.556349186104047" fill="none" stroke="black"/>
      <rect x="-4.2" y="73" width="8.4" height="14" fill="none" stroke="blue"/>
      <rect x="-12.2" y="69" width="24.4" height="22" fill="none" stroke="red"/>
      <text x="0" y="80" text-anchor="middle" dominant-baseline="central" font-family="Times,serif" font-size="14">A</text>
    </g>
    <!-- Node: B1 -->
    <g class="node" id="B1">
      <title>B1</title>
      <ellipse cx="150" cy="80" rx="17.25340546095176" ry="15.556349186104047" fill="none" stroke="black"/>
      <rect x="145.8" y="73" width="8.4" height="14" fill="none" stroke="blue"/>
      <rect x="137.8" y="69" width="24.4" height="22" fill="none" stroke="red"/>
      <text x="150" y="80" text-anchor="middle" dominant-baseline="central" font-family="Times,serif" font-size="14">B</text>
    </g>
    <!-- Edge: edge1 (A0 -> B0) -->
    <g class="edge" id="edge1">
      <title>A0-&gt;B0</title>
      <line x1="16.236297923240823" y1="-6.494519169296328" x2="21.863581602700684" y2="-8.745432641080274" stroke="blue"/>
      <line x1="36.03938298720681" y1="-24.415753194882722" x2="50" y2="-20" stroke="blue"/>
      <line x1="50" y1="-20" x2="63.96061701279319" y2="-15.584246805117278" stroke="blue"/>
      <line x1="86.0393829872068" y1="15.584246805117278" x2="100" y2="20" stroke="blue"/>
      <line x1="100" y1="20" x2="113.9606170127932" y2="24.415753194882722" stroke="blue"/>
      <line x1="128.13641839729934" y1="8.745432641080276" x2="133.7637020767592" y2="6.494519169296331" stroke="blue"/>
      <path d="M 16.236297923240823 -6.494519169296328 C 21.863581602700684 -8.745432641080274 36.03938298720681 -24.415753194882722 50 -20 C 63.96061701279319 -15.584246805117278 86.0393829872068 15.584246805117278 100 20 C 113.9606170127932 24.415753194882722 128.13641839729934 8.745432641080276 133.7637020767592 6.494519169296331" fill="none" stroke="black"/>
      <rect x="34.13137000703068" y="9.410513522020668" width="50.39999999999999" height="14" fill="none" stroke="blue"/>
      <rect x="34.13137000703068" y="9.410513522020668" width="50.39999999999999" height="14" fill="none" stroke="red"/>
      <text x="59.33137000703068" y="16.41051352202067" text-anchor="middle" dominant-baseline="central" font-family="Times,serif" font-size="14">spline</text>
    </g>
    <!-- Edge: edge2 (A1 -> B1) -->
    <g class="edge" id="edge2">
      <title>A1-&gt;B1</title>
      <line x1="16.05060258506377" y1="73.57975896597449" x2="50" y2="60" stroke="black"/>
      <line x1="50" y1="60" x2="100" y2="100" stroke="black"/>
      <line x1="100" y1="100" x2="133.94939741493624" y2="86.42024103402551" stroke="black"/>
      <rect x="48.22926829268293" y="85.46341463414635" width="33.6" height="14" fill="none" stroke="blue"/>
      <rect x="48.22926829268293" y="85.46341463414635" width="33.6" height="14" fill="none" stroke="red"/>
      <text x="65.02926829268293" y="92.46341463414635" text-anchor="middle" dominant-baseline="central" font-family="Times,serif" font-size="14">line</text>
    </g>
  </g>
</svg>
