<svg width="198.52691193458116" height="140.35220315893665" viewBox="0 0 198.52691193458116 140.35220315893665" xmlns="http://www.w3.org/2000/svg" xmlns:xlink="http://www.w3.org/1999/xlink">
  <!-- Generated by: https://github.com/CyberZHG/SVGDiagram -->
  <g id="graph0" class="graph" transform="translate(24.263455967290593,32.35220315893664) scale(1.0)">
    <!-- Node: A0 -->
    <g class="node" id="A0">
      <title>A0</title>
      <ellipse cx="0" cy="0" rx="16.263455967290593" ry="15.556349186104047" fill="none" stroke="black"/>
      <rect x="-3.5" y="-7" width="7" height="14" fill="none" stroke="blue"/>
      <rect x="-11.5" y="-11" width="23" height="22" fill="none" stroke="red"/>
      <text x="0" y="0" text-anchor="middle" dominant-baseline="central" font-family="Times,serif" font-size="14">A</text>
    </g>
    <!-- Node: B0 -->
    <g class="node" id="B0">
      <title>B0</title>
      <ellipse cx="150" cy="0" rx="16.263455967290593" ry="15.556349186104047" fill="none" stroke="black"/>
      <rect x="146.5" y="-7" width="7" height="14" fill="none" stroke="blue"/>
      <rect x="138.5" y="-11" width="23" height="22" fill="none" stroke="red"/>
      <text x="150" y="0" text-anchor="middle" dominant-baseline="central" font-family="Times,serif" font-size="14">B</text>
    </g>
    <!-- Node: A1 -->
    <g class="node" id="A1">
      <title>A1</title>
      <ellipse cx="0" cy="80" rx="16.263455967290593" ry="15.556349186104047" fill="none" stroke="black"/>
      <rect x="-3.5" y="73" width="7" height="14" fill="none" stroke="blue"/>
      <rect x="-11.5" y="69" width="23" height="22" fill="none" stroke="red"/>
      <text x="0" y="80" text-anchor="middle" dominant-baseline="central" font-family="Times,serif" font-size="14">A</text>
    </g>
    <!-- Node: B1 -->
    <g class="node" id="B1">
      <title>B1</title>
      <ellipse cx="150" cy="80" rx="16.263455967290593" ry="15.556349186104047" fill="none" stroke="black"/>
      <rect x="146.5" y="73" width="7" height="14" fill="none" stroke="blue"/>
      <rect x="138.5" y="69" width="23" height="22" fill="none" stroke="red"/>
      <text x="150" y="80" text-anchor="middle" dominant-baseline="central" font-family="Times,serif" font-size="14">B</text>
    </g>
    <!-- Edge: edge1 (A0 -> B0) -->
    <g class="edge" id="edge1">
      <title>A0->B0</title>
      <line x1="15.283047384049564" y1="-6.113218953619825" x2="21.069206153374637" y2="-8.427682461349853" stroke="blue"/>
      <line x1="35.880507897341595" y1="-24.35220315893664" x2="50" y2="-20" stroke="blue"/>
      <line x1="50" y1="-20" x2="64.1194921026584" y2="-15.647796841063363" stroke="blue"/>
      <line x1="85.88050789734159" y1="15.64779684106336" x2="100" y2="20" stroke="blue"/>
      <line x1="100" y1="20" x2="114.11949210265841" y2="24.35220315893664" stroke="blue"/>
      <line x1="128.93079384662536" y1="8.427682461349855" x2="134.71695261595045" y2="6.1132189536198265" stroke="blue"/>
      <path d="M 15.283047384049564 -6.113218953619825 C 21.069206153374637 -8.427682461349853 35.880507897341595 -24.35220315893664 50 -20 C 64.1194921026584 -15.647796841063363 85.88050789734159 15.64779684106336 100 20 C 114.11949210265841 24.35220315893664 128.93079384662536 8.427682461349855 134.71695261595045 6.1132189536198265" fill="none" stroke="black"/>
      <rect x="40.33806816091996" y="7.290089382784789" width="42" height="14" fill="none" stroke="blue"/>
      <rect x="40.33806816091996" y="7.290089382784789" width="42" height="14" fill="none" stroke="red"/>
      <text x="61.33806816091996" y="14.290089382784789" text-anchor="middle" dominant-baseline="central" font-family="Times,serif" font-size="14">spline</text>
    </g>
    <!-- Edge: edge2 (A1 -> B1) -->
    <g class="edge" id="edge2">
      <title>A1->B1</title>
      <line x1="15.283047384049564" y1="73.88678104638016" x2="50" y2="60" stroke="black"/>
      <line x1="50" y1="60" x2="100" y2="100" stroke="black"/>
      <line x1="100" y1="100" x2="134.71695261595045" y2="86.11321895361984" stroke="black"/>
      <rect x="52.1219512195122" y="84.09756097560975" width="28" height="14" fill="none" stroke="blue"/>
      <rect x="52.1219512195122" y="84.09756097560975" width="28" height="14" fill="none" stroke="red"/>
      <text x="66.1219512195122" y="91.09756097560975" text-anchor="middle" dominant-baseline="central" font-family="Times,serif" font-size="14">line</text>
    </g>
  </g>
</svg>
