<svg width="198.52691193458116" height="140.36458284814844" viewBox="0 0 198.52691193458116 140.36458284814844" xmlns="http://www.w3.org/2000/svg" xmlns:xlink="http://www.w3.org/1999/xlink">
  <!-- Generated by: https://github.com/CyberZHG/SVGDiagram -->
  <g id="graph0" class="graph" transform="translate(24.263455967290593,32.364582848148444) scale(1.0)">
    <!-- Node: A0 -->
    <g class="node" id="A0">
      <title>A0</title>
      <ellipse cx="0" cy="0" rx="16.263455967290593" ry="15.556349186104047" fill="none" stroke="black"/>
      <rect x="-3.5" y="-7" width="7" height="14" fill="none" stroke="blue"/>
      <rect x="-11.5" y="-11" width="23" height="22" fill="none" stroke="red"/>
      <text x="0" y="0" text-anchor="middle" dominant-baseline="central" font-family="Times,serif" font-size="14">A</text>
    </g>
    <!-- Node: B0 -->
    <g class="node" id="B0">
      <title>B0</title>
      <ellipse cx="150" cy="0" rx="16.263455967290593" ry="15.556349186104047" fill="none" stroke="black"/>
      <rect x="146.5" y="-7" width="7" height="14" fill="none" stroke="blue"/>
      <rect x="138.5" y="-11" width="23" height="22" fill="none" stroke="red"/>
      <text x="150" y="0" text-anchor="middle" dominant-baseline="central" font-family="Times,serif" font-size="14">B</text>
    </g>
    <!-- Node: A1 -->
    <g class="node" id="A1">
      <title>A1</title>
      <ellipse cx="0" cy="80" rx="16.263455967290593" ry="15.556349186104047" fill="none" stroke="black"/>
      <rect x="-3.5" y="73" width="7" height="14" fill="none" stroke="blue"/>
      <rect x="-11.5" y="69" width="23" height="22" fill="none" stroke="red"/>
      <text x="0" y="80" text-anchor="middle" dominant-baseline="central" font-family="Times,serif" font-size="14">A</text>
    </g>
    <!-- Node: B1 -->
    <g class="node" id="B1">
      <title>B1</title>
      <ellipse cx="150" cy="80" rx="16.263455967290593" ry="15.556349186104047" fill="none" stroke="black"/>
      <rect x="146.5" y="73" width="7" height="14" fill="none" stroke="blue"/>
      <rect x="138.5" y="69" width="23" height="22" fill="none" stroke="red"/>
      <text x="150" y="80" text-anchor="middle" dominant-baseline="central" font-family="Times,serif" font-size="14">B</text>
    </g>
    <!-- Edge: edge1 (A0 -> B0) -->
    <g class="edge" id="edge1">
      <title>A0->B0</title>
      <line x1="15.468742722226615" y1="-6.1874970888906455" x2="21.22395226852218" y2="-8.489580907408872" stroke="blue"/>
      <line x1="35.911457120371104" y1="-24.36458284814844" x2="50" y2="-20" stroke="blue"/>
      <line x1="50" y1="-20" x2="64.0885428796289" y2="-15.63541715185156" stroke="blue"/>
      <line x1="85.9114571203711" y1="15.63541715185156" x2="100" y2="20" stroke="blue"/>
      <line x1="100" y1="20" x2="114.0885428796289" y2="24.36458284814844" stroke="blue"/>
      <line x1="128.77604773147783" y1="8.489580907408872" x2="134.5312572777734" y2="6.187497088890647" stroke="blue"/>
      <path d="M 15.468742722226615 -6.1874970888906455 C 21.22395226852218 -8.489580907408872 35.911457120371104 -24.36458284814844 50 -20 C 64.0885428796289 -15.63541715185156 85.9114571203711 15.63541715185156 100 20 C 114.0885428796289 24.36458284814844 128.77604773147783 8.489580907408872 134.5312572777734 6.187497088890647" fill="none" stroke="black"/>
      <rect x="40.351026653767356" y="7.294137590565526" width="42" height="14" fill="none" stroke="blue"/>
      <rect x="40.351026653767356" y="7.294137590565526" width="42" height="14" fill="none" stroke="red"/>
      <text x="61.351026653767356" y="14.294137590565526" text-anchor="middle" dominant-baseline="central" font-family="Times,serif" font-size="14">spline</text>
    </g>
    <!-- Edge: edge2 (A1 -> B1) -->
    <g class="edge" id="edge2">
      <title>A1->B1</title>
      <line x1="15.283047384049564" y1="73.88678104638016" x2="50" y2="60" stroke="black"/>
      <line x1="50" y1="60" x2="100" y2="100" stroke="black"/>
      <line x1="100" y1="100" x2="134.71695261595045" y2="86.11321895361984" stroke="black"/>
      <rect x="52.1219512195122" y="84.09756097560975" width="28" height="14" fill="none" stroke="blue"/>
      <rect x="52.1219512195122" y="84.09756097560975" width="28" height="14" fill="none" stroke="red"/>
      <text x="66.1219512195122" y="91.09756097560975" text-anchor="middle" dominant-baseline="central" font-family="Times,serif" font-size="14">line</text>
    </g>
  </g>
</svg>
