<svg width="733.2698774547696" height="566.531197291564" viewBox="0 0 733.2698774547696 566.531197291564" xmlns="http://www.w3.org/2000/svg" xmlns:xlink="http://www.w3.org/1999/xlink">
  <!-- Generated by: https://github.com/CyberZHG/SVGDiagram -->
  <g id="graph0" class="graph" transform="translate(93.48635973130634,42.97484810546001) scale(1.0)">
    <!-- Node: ellipse -->
    <g class="node" id="ellipse">
      <title>ellipse</title>
      <ellipse cx="0" cy="0" rx="52.891587232753764" ry="15.556349186104047" fill="none" stroke="black"/>
      <text x="0" y="0" text-anchor="middle" dominant-baseline="central" font-family="Times,serif" font-size="14">ellipse</text>
    </g>
    <!-- Node: doubleellipse -->
    <g class="node" id="doubleellipse">
      <title>doubleellipse</title>
      <ellipse cx="180" cy="0" rx="88.52976900455576" ry="15.556349186104047" fill="none" stroke="black"/>
      <ellipse cx="180" cy="0" rx="92.52976900455576" ry="19.556349186104047" fill="none" stroke="black"/>
      <text x="180" y="0" text-anchor="middle" dominant-baseline="central" font-family="Times,serif" font-size="14">doubleellipse</text>
    </g>
    <!-- Node: none -->
    <g class="node" id="none">
      <title>none</title>
      <text x="360" y="0" text-anchor="middle" dominant-baseline="central" font-family="Times,serif" font-size="14">none</text>
    </g>
    <!-- Node: circle -->
    <g class="node" id="circle">
      <title>circle</title>
      <circle cx="540" cy="0" r="34.97484810546001" fill="none" stroke="black"/>
      <text x="540" y="0" text-anchor="middle" dominant-baseline="central" font-family="Times,serif" font-size="14">circle</text>
    </g>
    <!-- Node: doublecircle -->
    <g class="node" id="doublecircle">
      <title>doublecircle</title>
      <circle cx="0" cy="100" r="59.42692992238451" fill="none" stroke="black"/>
      <circle cx="0" cy="100" r="63.42692992238451" fill="none" stroke="black"/>
      <text x="0" y="100" text-anchor="middle" dominant-baseline="central" font-family="Times,serif" font-size="14">doublecircle</text>
    </g>
    <!-- Node: rect -->
    <g class="node" id="rect">
      <title>rect</title>
      <rect x="155.2" y="89" width="49.6" height="22" fill="none" stroke="black"/>
      <text x="180" y="100" text-anchor="middle" dominant-baseline="central" font-family="Times,serif" font-size="14">rect</text>
    </g>
    <!-- Node: polygon -->
    <g class="node" id="polygon">
      <title>polygon</title>
      <polygon points="360,84.44365081389596 401.352308056271,90.30077492831072 411.56548471281144,103.46161334984242 382.9487996364097,114.01578631489889 337.0512003635903,114.01578631489889 308.43451528718856,103.46161334984242 318.647691943729,90.30077492831072" fill="none" stroke="black"/>
      <text x="360" y="100" text-anchor="middle" dominant-baseline="central" font-family="Times,serif" font-size="14">polygon</text>
    </g>
    <!-- Node: triangle -->
    <g class="node" id="triangle">
      <title>triangle</title>
      <polygon points="540,84.44365081389596 590.9493866498901,107.77817459305201 489.0506133501099,107.77817459305203" fill="none" stroke="black"/>
      <text x="540" y="100" text-anchor="middle" dominant-baseline="central" font-family="Times,serif" font-size="14">triangle</text>
    </g>
    <!-- Node: pentagon -->
    <g class="node" id="pentagon">
      <title>pentagon</title>
      <polygon points="3.602377193939652e-15,184.44365081389594 55.951876195401255,195.19282373106296 34.580161223084126,212.58535086198904 -34.58016122308412,212.58535086198904 -55.951876195401255,195.19282373106296" fill="none" stroke="black"/>
      <text x="0" y="200" text-anchor="middle" dominant-baseline="central" font-family="Times,serif" font-size="14">pentagon</text>
    </g>
    <!-- Node: hexagon -->
    <g class="node" id="hexagon">
      <title>hexagon</title>
      <polygon points="206.44579361637687,186.52780641469252 232.89158723275375,200 206.4457936163769,213.47219358530748 153.55420638362315,213.47219358530748 127.10841276724624,200 153.5542063836231,186.52780641469252" fill="none" stroke="black"/>
      <text x="180" y="200" text-anchor="middle" dominant-baseline="central" font-family="Times,serif" font-size="14">hexagon</text>
    </g>
    <!-- Node: septagon -->
    <g class="node" id="septagon">
      <title>septagon</title>
      <polygon points="360,184.44365081389594 405.9961501374565,190.30077492831072 417.35626107093464,203.46161334984242 385.52593756349313,214.0157863148989 334.47406243650687,214.0157863148989 302.64373892906536,203.46161334984242 314.0038498625435,190.30077492831072" fill="none" stroke="black"/>
      <text x="360" y="200" text-anchor="middle" dominant-baseline="central" font-family="Times,serif" font-size="14">septagon</text>
    </g>
    <!-- Node: octagon -->
    <g class="node" id="octagon">
      <title>octagon</title>
      <polygon points="560.2407341454677,185.62780738635985 588.8654548863765,194.04684289839184 588.8654548863765,205.95315710160816 560.2407341454677,214.37219261364015 519.7592658545323,214.37219261364015 491.1345451136235,205.95315710160816 491.1345451136235,194.04684289839184 519.7592658545321,185.62780738635985" fill="none" stroke="black"/>
      <text x="540" y="200" text-anchor="middle" dominant-baseline="central" font-family="Times,serif" font-size="14">octagon</text>
    </g>
    <!-- Node: doubleoctagon -->
    <g class="node" id="doubleoctagon">
      <title>doubleoctagon</title>
      <polygon points="33.87887586915194,285.62780738635985 81.79084160126118,294.04684289839184 81.79084160126118,305.95315710160816 33.87887586915194,314.37219261364015 -33.87887586915193,314.37219261364015 -81.79084160126118,305.95315710160816 -81.79084160126119,294.04684289839184 -33.87887586915198,285.62780738635985" fill="none" stroke="black"/>
      <polygon points="35.4096095986123,281.93228925631473 85.48635973130632,292.51610916893145 85.48635973130632,307.48389083106855 35.4096095986123,318.06771074368527 -35.40960959861229,318.06771074368527 -85.48635973130632,307.48389083106855 -85.48635973130634,292.51610916893145 -35.40960959861235,281.93228925631473" fill="none" stroke="black"/>
      <text x="0" y="300" text-anchor="middle" dominant-baseline="central" font-family="Times,serif" font-size="14">doubleoctagon</text>
    </g>
    <!-- Node: tripleoctagon -->
    <g class="node" id="tripleoctagon">
      <title>tripleoctagon</title>
      <polygon points="213.87887586915195,285.62780738635985 261.7908416012612,294.04684289839184 261.7908416012612,305.95315710160816 213.87887586915195,314.37219261364015 146.12112413084807,314.37219261364015 98.20915839873882,305.95315710160816 98.20915839873881,294.04684289839184 146.12112413084802,285.62780738635985" fill="none" stroke="black"/>
      <polygon points="215.4096095986123,281.93228925631473 265.4863597313063,292.51610916893145 265.4863597313063,307.48389083106855 215.4096095986123,318.06771074368527 144.5903904013877,318.06771074368527 94.51364026869368,307.48389083106855 94.51364026869366,292.51610916893145 144.59039040138765,281.93228925631473" fill="none" stroke="black"/>
      <polygon points="216.94034332807266,278.23677112626956 269.1818778613515,290.9853754394711 269.1818778613515,309.0146245605289 216.94034332807266,321.76322887373044 143.05965667192734,321.76322887373044 90.81812213864853,309.0146245605289 90.81812213864852,290.9853754394711 143.05965667192729,278.23677112626956" fill="none" stroke="black"/>
      <text x="180" y="300" text-anchor="middle" dominant-baseline="central" font-family="Times,serif" font-size="14">tripleoctagon</text>
    </g>
    <!-- Node: trapezium -->
    <g class="node" id="trapezium">
      <title>trapezium</title>
      <polygon points="396.3739134020145,289 422.2823058646896,311 297.7176941353104,311 323.6260865979855,289" fill="none" stroke="black"/>
      <text x="360" y="300" text-anchor="middle" dominant-baseline="central" font-family="Times,serif" font-size="14">trapezium</text>
    </g>
    <!-- Node: parallelogram -->
    <g class="node" id="parallelogram">
      <title>parallelogram</title>
      <polygon points="631.7835177234632,289 594.2235177234631,311 448.21648227653685,311 485.7764822765368,289" fill="none" stroke="black"/>
      <text x="540" y="300" text-anchor="middle" dominant-baseline="central" font-family="Times,serif" font-size="14">parallelogram</text>
    </g>
    <!-- Node: house -->
    <g class="node" id="house">
      <title>house</title>
      <polygon points="1.5767910138416468e-15,384.44365081389594 39.56688408920165,395.19282373106296 39.52995310126091,412.58535086198907 -39.5299531012609,412.58535086198907 -39.566884089201665,395.19282373106296" fill="none" stroke="black"/>
      <text x="0" y="400" text-anchor="middle" dominant-baseline="central" font-family="Times,serif" font-size="14">house</text>
    </g>
    <!-- Node: diamond -->
    <g class="node" id="diamond">
      <title>diamond</title>
      <polygon points="180,384.44365081389594 232.89158723275375,400 180,415.55634918610406 127.10841276724624,400" fill="none" stroke="black"/>
      <text x="180" y="400" text-anchor="middle" dominant-baseline="central" font-family="Times,serif" font-size="14">diamond</text>
    </g>
    <!-- Node: invtriangle -->
    <g class="node" id="invtriangle">
      <title>invtriangle</title>
      <polygon points="360,415.55634918610406 293.61882797057586,392.22182540694797 426.38117202942414,392.22182540694797" fill="none" stroke="black"/>
      <text x="360" y="400" text-anchor="middle" dominant-baseline="central" font-family="Times,serif" font-size="14">invtriangle</text>
    </g>
    <!-- Node: invtrapezium -->
    <g class="node" id="invtrapezium">
      <title>invtrapezium</title>
      <polygon points="493.6192894611867,411 460.58326064415127,389 619.4167393558488,389 586.3807105388132,411" fill="none" stroke="black"/>
      <text x="540" y="400" text-anchor="middle" dominant-baseline="central" font-family="Times,serif" font-size="14">invtrapezium</text>
    </g>
    <!-- Node: invhouse -->
    <g class="node" id="invhouse">
      <title>invhouse</title>
      <polygon points="-9.466633911183185e-15,515.5563491861041 -56.758013038303055,504.80717626893704 -56.70503617284323,487.41464913801093 56.70503617284323,487.41464913801093 56.758013038303076,504.80717626893704" fill="none" stroke="black"/>
      <text x="0" y="500" text-anchor="middle" dominant-baseline="central" font-family="Times,serif" font-size="14">invhouse</text>
    </g>
  </g>
</svg>
