<svg width="631.4816592753425" height="426.53119729156407" viewBox="0 0 631.4816592753425 426.53119729156407" xmlns="http://www.w3.org/2000/svg" xmlns:xlink="http://www.w3.org/1999/xlink">
  <!-- Generated by: https://github.com/CyberZHG/SVGDiagram -->
  <g id="graph0" class="graph" transform="translate(84.65037508062176,42.97484810546001) scale(1.0)">
    <!-- Node: ellipse -->
    <g class="node" id="ellipse">
      <title>ellipse</title>
      <ellipse cx="0" cy="0" rx="52.891587232753764" ry="15.556349186104047" fill="none" stroke="black"/>
      <rect x="-29.400000000000002" y="-7" width="58.800000000000004" height="14" fill="none" stroke="blue"/>
      <rect x="-37.400000000000006" y="-11" width="74.80000000000001" height="22" fill="none" stroke="red"/>
      <text x="0" y="0" text-anchor="middle" dominant-baseline="central" font-family="Times,serif" font-size="14">ellipse</text>
    </g>
    <!-- Node: doubleellipse -->
    <g class="node" id="doubleellipse">
      <title>doubleellipse</title>
      <ellipse cx="160" cy="0" rx="88.52976900455576" ry="15.556349186104047" fill="none" stroke="black"/>
      <ellipse cx="160" cy="0" rx="92.52976900455576" ry="19.556349186104047" fill="none" stroke="black"/>
      <rect x="105.4" y="-7" width="109.2" height="14" fill="none" stroke="blue"/>
      <rect x="97.4" y="-11" width="125.2" height="22" fill="none" stroke="red"/>
      <text x="160" y="0" text-anchor="middle" dominant-baseline="central" font-family="Times,serif" font-size="14">doubleellipse</text>
    </g>
    <!-- Node: none -->
    <g class="node" id="none">
      <title>none</title>
      <rect x="303.2" y="-7" width="33.6" height="14" fill="none" stroke="blue"/>
      <rect x="295.2" y="-11" width="49.6" height="22" fill="none" stroke="red"/>
      <text x="320" y="0" text-anchor="middle" dominant-baseline="central" font-family="Times,serif" font-size="14">none</text>
    </g>
    <!-- Node: circle -->
    <g class="node" id="circle">
      <title>circle</title>
      <circle cx="480" cy="0" r="34.97484810546001" fill="none" stroke="black"/>
      <rect x="454.8" y="-7" width="50.39999999999999" height="14" fill="none" stroke="blue"/>
      <rect x="446.8" y="-11" width="66.39999999999999" height="22" fill="none" stroke="red"/>
      <text x="480" y="0" text-anchor="middle" dominant-baseline="central" font-family="Times,serif" font-size="14">circle</text>
    </g>
    <!-- Node: doublecircle -->
    <g class="node" id="doublecircle">
      <title>doublecircle</title>
      <circle cx="0" cy="90" r="59.42692992238451" fill="none" stroke="black"/>
      <circle cx="0" cy="90" r="63.42692992238451" fill="none" stroke="black"/>
      <rect x="-50.39999999999999" y="83" width="100.79999999999998" height="14" fill="none" stroke="blue"/>
      <rect x="-58.39999999999999" y="79" width="116.79999999999998" height="22" fill="none" stroke="red"/>
      <text x="0" y="90" text-anchor="middle" dominant-baseline="central" font-family="Times,serif" font-size="14">doublecircle</text>
    </g>
    <!-- Node: rect -->
    <g class="node" id="rect">
      <title>rect</title>
      <rect x="135.2" y="79" width="49.6" height="22" fill="none" stroke="black"/>
      <rect x="143.2" y="83" width="33.6" height="14" fill="none" stroke="blue"/>
      <rect x="135.2" y="79" width="49.6" height="22" fill="none" stroke="red"/>
      <text x="160" y="90" text-anchor="middle" dominant-baseline="central" font-family="Times,serif" font-size="14">rect</text>
    </g>
    <!-- Node: polygon -->
    <g class="node" id="polygon">
      <title>polygon</title>
      <ellipse cx="320" cy="90" rx="52.891587232753764" ry="15.556349186104047" fill="none" stroke="green"/>
      <polygon points="320,74.44365081389596 361.352308056271,80.30077492831072 371.56548471281144,93.46161334984242 342.9487996364097,104.01578631489889 297.0512003635903,104.01578631489889 268.43451528718856,93.46161334984242 278.647691943729,80.30077492831072" fill="none" stroke="black"/>
      <rect x="290.6" y="83" width="58.800000000000004" height="14" fill="none" stroke="blue"/>
      <rect x="282.6" y="79" width="74.80000000000001" height="22" fill="none" stroke="red"/>
      <text x="320" y="90" text-anchor="middle" dominant-baseline="central" font-family="Times,serif" font-size="14">polygon</text>
    </g>
    <!-- Node: triangle -->
    <g class="node" id="triangle">
      <title>triangle</title>
      <ellipse cx="480" cy="90" rx="58.83128419472076" ry="15.556349186104047" fill="none" stroke="green"/>
      <polygon points="480,74.44365081389596 530.9493866498901,97.77817459305201 429.0506133501099,97.77817459305203" fill="none" stroke="black"/>
      <rect x="446.4" y="83" width="67.2" height="14" fill="none" stroke="blue"/>
      <rect x="438.4" y="79" width="83.2" height="22" fill="none" stroke="red"/>
      <text x="480" y="90" text-anchor="middle" dominant-baseline="central" font-family="Times,serif" font-size="14">triangle</text>
    </g>
    <!-- Node: pentagon -->
    <g class="node" id="pentagon">
      <title>pentagon</title>
      <ellipse cx="0" cy="180" rx="58.83128419472076" ry="15.556349186104047" fill="none" stroke="green"/>
      <polygon points="3.602377193939652e-15,164.44365081389594 55.951876195401255,175.19282373106296 34.580161223084126,192.58535086198904 -34.58016122308412,192.58535086198904 -55.951876195401255,175.19282373106296" fill="none" stroke="black"/>
      <rect x="-33.6" y="173" width="67.2" height="14" fill="none" stroke="blue"/>
      <rect x="-41.6" y="169" width="83.2" height="22" fill="none" stroke="red"/>
      <text x="0" y="180" text-anchor="middle" dominant-baseline="central" font-family="Times,serif" font-size="14">pentagon</text>
    </g>
    <!-- Node: hexagon -->
    <g class="node" id="hexagon">
      <title>hexagon</title>
      <ellipse cx="160" cy="180" rx="52.891587232753764" ry="15.556349186104047" fill="none" stroke="green"/>
      <polygon points="186.44579361637687,166.52780641469252 212.89158723275375,180 186.4457936163769,193.47219358530748 133.55420638362315,193.47219358530748 107.10841276724624,180 133.5542063836231,166.52780641469252" fill="none" stroke="black"/>
      <rect x="130.6" y="173" width="58.800000000000004" height="14" fill="none" stroke="blue"/>
      <rect x="122.6" y="169" width="74.80000000000001" height="22" fill="none" stroke="red"/>
      <text x="160" y="180" text-anchor="middle" dominant-baseline="central" font-family="Times,serif" font-size="14">hexagon</text>
    </g>
    <!-- Node: septagon -->
    <g class="node" id="septagon">
      <title>septagon</title>
      <ellipse cx="320" cy="180" rx="58.83128419472076" ry="15.556349186104047" fill="none" stroke="green"/>
      <polygon points="320,164.44365081389594 365.9961501374565,170.30077492831072 377.35626107093464,183.46161334984242 345.52593756349313,194.0157863148989 294.47406243650687,194.0157863148989 262.64373892906536,183.46161334984242 274.0038498625435,170.30077492831072" fill="none" stroke="black"/>
      <rect x="286.4" y="173" width="67.2" height="14" fill="none" stroke="blue"/>
      <rect x="278.4" y="169" width="83.2" height="22" fill="none" stroke="red"/>
      <text x="320" y="180" text-anchor="middle" dominant-baseline="central" font-family="Times,serif" font-size="14">septagon</text>
    </g>
    <!-- Node: octagon -->
    <g class="node" id="octagon">
      <title>octagon</title>
      <ellipse cx="480" cy="180" rx="52.891587232753764" ry="15.556349186104047" fill="none" stroke="green"/>
      <polygon points="500.2407341454678,165.62780738635985 528.8654548863765,174.04684289839184 528.8654548863765,185.95315710160816 500.2407341454678,194.37219261364015 459.75926585453226,194.37219261364015 431.1345451136235,185.95315710160816 431.1345451136235,174.04684289839184 459.7592658545322,165.62780738635985" fill="none" stroke="black"/>
      <rect x="450.6" y="173" width="58.800000000000004" height="14" fill="none" stroke="blue"/>
      <rect x="442.6" y="169" width="74.80000000000001" height="22" fill="none" stroke="red"/>
      <text x="480" y="180" text-anchor="middle" dominant-baseline="central" font-family="Times,serif" font-size="14">octagon</text>
    </g>
    <!-- Node: trapezium -->
    <g class="node" id="trapezium">
      <title>trapezium</title>
      <ellipse cx="0" cy="270" rx="64.77098115668775" ry="15.556349186104047" fill="none" stroke="green"/>
      <polygon points="36.37391340201451,259 62.282305864689604,281 -62.282305864689604,281 -36.373913402014516,259" fill="none" stroke="black"/>
      <rect x="-37.8" y="263" width="75.6" height="14" fill="none" stroke="blue"/>
      <rect x="-45.8" y="259" width="91.6" height="22" fill="none" stroke="red"/>
      <text x="0" y="270" text-anchor="middle" dominant-baseline="central" font-family="Times,serif" font-size="14">trapezium</text>
    </g>
    <!-- Node: parallelogram -->
    <g class="node" id="parallelogram">
      <title>parallelogram</title>
      <ellipse cx="160" cy="270" rx="88.52976900455576" ry="15.556349186104047" fill="none" stroke="green"/>
      <polygon points="251.78351772346318,259 214.22351772346317,281 68.21648227653684,281 105.77648227653683,259" fill="none" stroke="black"/>
      <rect x="105.4" y="263" width="109.2" height="14" fill="none" stroke="blue"/>
      <rect x="97.4" y="259" width="125.2" height="22" fill="none" stroke="red"/>
      <text x="160" y="270" text-anchor="middle" dominant-baseline="central" font-family="Times,serif" font-size="14">parallelogram</text>
    </g>
    <!-- Node: house -->
    <g class="node" id="house">
      <title>house</title>
      <ellipse cx="320" cy="270" rx="41.01219330881976" ry="15.556349186104047" fill="none" stroke="green"/>
      <polygon points="320,254.44365081389594 359.56688408920166,265.19282373106296 359.5299531012609,282.58535086198907 280.4700468987391,282.58535086198907 280.43311591079834,265.19282373106296" fill="none" stroke="black"/>
      <rect x="299" y="263" width="42" height="14" fill="none" stroke="blue"/>
      <rect x="291" y="259" width="58" height="22" fill="none" stroke="red"/>
      <text x="320" y="270" text-anchor="middle" dominant-baseline="central" font-family="Times,serif" font-size="14">house</text>
    </g>
    <!-- Node: diamond -->
    <g class="node" id="diamond">
      <title>diamond</title>
      <ellipse cx="480" cy="270" rx="52.891587232753764" ry="15.556349186104047" fill="none" stroke="green"/>
      <polygon points="480,254.44365081389594 532.8915872327537,270 480,285.55634918610406 427.10841276724625,270" fill="none" stroke="black"/>
      <rect x="450.6" y="263" width="58.800000000000004" height="14" fill="none" stroke="blue"/>
      <rect x="442.6" y="259" width="74.80000000000001" height="22" fill="none" stroke="red"/>
      <text x="480" y="270" text-anchor="middle" dominant-baseline="central" font-family="Times,serif" font-size="14">diamond</text>
    </g>
    <!-- Node: invtriangle -->
    <g class="node" id="invtriangle">
      <title>invtriangle</title>
      <ellipse cx="0" cy="360" rx="76.65037508062176" ry="15.556349186104047" fill="none" stroke="green"/>
      <polygon points="-1.4080445474389121e-14,375.55634918610406 -66.38117202942412,352.22182540694797 66.38117202942412,352.22182540694797" fill="none" stroke="black"/>
      <rect x="-46.199999999999996" y="353" width="92.39999999999999" height="14" fill="none" stroke="blue"/>
      <rect x="-54.199999999999996" y="349" width="108.39999999999999" height="22" fill="none" stroke="red"/>
      <text x="0" y="360" text-anchor="middle" dominant-baseline="central" font-family="Times,serif" font-size="14">invtriangle</text>
    </g>
    <!-- Node: invtrapezium -->
    <g class="node" id="invtrapezium">
      <title>invtrapezium</title>
      <ellipse cx="160" cy="360" rx="82.59007204258876" ry="15.556349186104047" fill="none" stroke="green"/>
      <polygon points="113.61928946118672,371 80.58326064415125,349 239.41673935584876,349 206.38071053881325,371" fill="none" stroke="black"/>
      <rect x="109.60000000000001" y="353" width="100.79999999999998" height="14" fill="none" stroke="blue"/>
      <rect x="101.60000000000001" y="349" width="116.79999999999998" height="22" fill="none" stroke="red"/>
      <text x="160" y="360" text-anchor="middle" dominant-baseline="central" font-family="Times,serif" font-size="14">invtrapezium</text>
    </g>
    <!-- Node: invhouse -->
    <g class="node" id="invhouse">
      <title>invhouse</title>
      <ellipse cx="320" cy="360" rx="58.83128419472076" ry="15.556349186104047" fill="none" stroke="green"/>
      <polygon points="320,375.55634918610406 263.24198696169697,364.80717626893704 263.2949638271568,347.41464913801093 376.7050361728432,347.41464913801093 376.7580130383031,364.80717626893704" fill="none" stroke="black"/>
      <rect x="286.4" y="353" width="67.2" height="14" fill="none" stroke="blue"/>
      <rect x="278.4" y="349" width="83.2" height="22" fill="none" stroke="red"/>
      <text x="320" y="360" text-anchor="middle" dominant-baseline="central" font-family="Times,serif" font-size="14">invhouse</text>
    </g>
  </g>
</svg>
