<svg width="471.95669892694025" height="214.40177802784453" viewBox="0 0 471.95669892694025 214.40177802784453" xmlns="http://www.w3.org/2000/svg" xmlns:xlink="http://www.w3.org/1999/xlink">
  <!-- Generated by: https://github.com/CyberZHG/SVGDiagram -->
  <g id="graph0" class="graph" transform="translate(71.42692992238452,42.97484810546001) scale(1.0)">
    <!-- Node: ellipse -->
    <g class="node" id="ellipse">
      <title>ellipse</title>
      <ellipse cx="0" cy="0" rx="52.891587232753764" ry="15.556349186104047" fill="none" stroke="black"/>
      <rect x="-29.400000000000002" y="-7" width="58.800000000000004" height="14" fill="none" stroke="blue"/>
      <rect x="-37.400000000000006" y="-11" width="74.80000000000001" height="22" fill="none" stroke="red"/>
      <text x="0" y="0" text-anchor="middle" dominant-baseline="central" font-family="Times,serif" font-size="14">ellipse</text>
    </g>
    <!-- Node: none -->
    <g class="node" id="none">
      <title>none</title>
      <rect x="133.2" y="-7" width="33.6" height="14" fill="none" stroke="blue"/>
      <rect x="125.2" y="-11" width="49.6" height="22" fill="none" stroke="red"/>
      <text x="150" y="0" text-anchor="middle" dominant-baseline="central" font-family="Times,serif" font-size="14">none</text>
    </g>
    <!-- Node: circle -->
    <g class="node" id="circle">
      <title>circle</title>
      <circle cx="300" cy="0" r="34.97484810546001" fill="none" stroke="black"/>
      <rect x="274.8" y="-7" width="50.39999999999999" height="14" fill="none" stroke="blue"/>
      <rect x="266.8" y="-11" width="66.39999999999999" height="22" fill="none" stroke="red"/>
      <text x="300" y="0" text-anchor="middle" dominant-baseline="central" font-family="Times,serif" font-size="14">circle</text>
    </g>
    <!-- Node: doublecircle -->
    <g class="node" id="doublecircle">
      <title>doublecircle</title>
      <circle cx="0" cy="100" r="59.42692992238451" fill="none" stroke="black"/>
      <circle cx="0" cy="100" r="63.42692992238451" fill="none" stroke="black"/>
      <rect x="-50.39999999999999" y="93" width="100.79999999999998" height="14" fill="none" stroke="blue"/>
      <rect x="-58.39999999999999" y="89" width="116.79999999999998" height="22" fill="none" stroke="red"/>
      <text x="0" y="100" text-anchor="middle" dominant-baseline="central" font-family="Times,serif" font-size="14">doublecircle</text>
    </g>
    <!-- Node: rect -->
    <g class="node" id="rect">
      <title>rect</title>
      <rect x="125.2" y="89" width="49.6" height="22" fill="none" stroke="black"/>
      <rect x="133.2" y="93" width="33.6" height="14" fill="none" stroke="blue"/>
      <rect x="125.2" y="89" width="49.6" height="22" fill="none" stroke="red"/>
      <text x="150" y="100" text-anchor="middle" dominant-baseline="central" font-family="Times,serif" font-size="14">rect</text>
    </g>
    <!-- Node: doubleellipse -->
    <g class="node" id="doubleellipse">
      <title>doubleellipse</title>
      <ellipse cx="300" cy="100" rx="88.52976900455576" ry="15.556349186104047" fill="none" stroke="black"/>
      <ellipse cx="300" cy="100" rx="92.52976900455576" ry="19.556349186104047" fill="none" stroke="black"/>
      <rect x="245.4" y="93" width="109.2" height="14" fill="none" stroke="blue"/>
      <rect x="237.4" y="89" width="125.2" height="22" fill="none" stroke="red"/>
      <text x="300" y="100" text-anchor="middle" dominant-baseline="central" font-family="Times,serif" font-size="14">doubleellipse</text>
    </g>
  </g>
</svg>
