<svg width="498.25821411710524" height="226.53119729156407" viewBox="0 0 498.25821411710524 226.53119729156407" xmlns="http://www.w3.org/2000/svg" xmlns:xlink="http://www.w3.org/1999/xlink">
  <!-- Generated by: https://github.com/CyberZHG/SVGDiagram -->
  <g id="graph0" class="graph" transform="translate(71.42692992238452,42.97484810546001) scale(1.0)">
    <!-- Node: ellipse -->
    <g class="node" id="ellipse">
      <title>ellipse</title>
      <ellipse cx="0" cy="0" rx="52.891587232753764" ry="15.556349186104047" fill="none" stroke="black"/>
      <rect x="-29.400000000000002" y="-7" width="58.800000000000004" height="14" fill="none" stroke="blue"/>
      <rect x="-37.400000000000006" y="-11" width="74.80000000000001" height="22" fill="none" stroke="red"/>
      <text x="0" y="0" text-anchor="middle" dominant-baseline="central" font-family="Times,serif" font-size="14">ellipse</text>
    </g>
    <!-- Node: doubleellipse -->
    <g class="node" id="doubleellipse">
      <title>doubleellipse</title>
      <ellipse cx="120" cy="0" rx="88.52976900455576" ry="15.556349186104047" fill="none" stroke="black"/>
      <ellipse cx="120" cy="0" rx="92.52976900455576" ry="19.556349186104047" fill="none" stroke="black"/>
      <rect x="65.4" y="-7" width="109.2" height="14" fill="none" stroke="blue"/>
      <rect x="57.4" y="-11" width="125.2" height="22" fill="none" stroke="red"/>
      <text x="120" y="0" text-anchor="middle" dominant-baseline="central" font-family="Times,serif" font-size="14">doubleellipse</text>
    </g>
    <!-- Node: none -->
    <g class="node" id="none">
      <title>none</title>
      <rect x="223.2" y="-7" width="33.6" height="14" fill="none" stroke="blue"/>
      <rect x="215.2" y="-11" width="49.6" height="22" fill="none" stroke="red"/>
      <text x="240" y="0" text-anchor="middle" dominant-baseline="central" font-family="Times,serif" font-size="14">none</text>
    </g>
    <!-- Node: circle -->
    <g class="node" id="circle">
      <title>circle</title>
      <circle cx="360" cy="0" r="34.97484810546001" fill="none" stroke="black"/>
      <rect x="334.8" y="-7" width="50.39999999999999" height="14" fill="none" stroke="blue"/>
      <rect x="326.8" y="-11" width="66.39999999999999" height="22" fill="none" stroke="red"/>
      <text x="360" y="0" text-anchor="middle" dominant-baseline="central" font-family="Times,serif" font-size="14">circle</text>
    </g>
    <!-- Node: doublecircle -->
    <g class="node" id="doublecircle">
      <title>doublecircle</title>
      <circle cx="0" cy="80" r="59.42692992238451" fill="none" stroke="black"/>
      <circle cx="0" cy="80" r="63.42692992238451" fill="none" stroke="black"/>
      <rect x="-50.39999999999999" y="73" width="100.79999999999998" height="14" fill="none" stroke="blue"/>
      <rect x="-58.39999999999999" y="69" width="116.79999999999998" height="22" fill="none" stroke="red"/>
      <text x="0" y="80" text-anchor="middle" dominant-baseline="central" font-family="Times,serif" font-size="14">doublecircle</text>
    </g>
    <!-- Node: rect -->
    <g class="node" id="rect">
      <title>rect</title>
      <rect x="95.2" y="69" width="49.6" height="22" fill="none" stroke="black"/>
      <rect x="103.2" y="73" width="33.6" height="14" fill="none" stroke="blue"/>
      <rect x="95.2" y="69" width="49.6" height="22" fill="none" stroke="red"/>
      <text x="120" y="80" text-anchor="middle" dominant-baseline="central" font-family="Times,serif" font-size="14">rect</text>
    </g>
    <!-- Node: polygon -->
    <g class="node" id="polygon">
      <title>polygon</title>
      <ellipse cx="240" cy="80" rx="52.891587232753764" ry="15.556349186104047" fill="none" stroke="green"/>
      <polygon points="240,64.44365081389596 281.352308056271,70.30077492831072 291.56548471281144,83.46161334984242 262.9487996364097,94.01578631489889 217.0512003635903,94.01578631489889 188.4345152871886,83.46161334984242 198.647691943729,70.30077492831072" fill="none" stroke="black"/>
      <rect x="210.6" y="73" width="58.800000000000004" height="14" fill="none" stroke="blue"/>
      <rect x="202.6" y="69" width="74.80000000000001" height="22" fill="none" stroke="red"/>
      <text x="240" y="80" text-anchor="middle" dominant-baseline="central" font-family="Times,serif" font-size="14">polygon</text>
    </g>
    <!-- Node: triangle -->
    <g class="node" id="triangle">
      <title>triangle</title>
      <ellipse cx="360" cy="80" rx="58.83128419472076" ry="15.556349186104047" fill="none" stroke="green"/>
      <polygon points="360,64.44365081389596 410.94938664989013,87.77817459305201 309.0506133501099,87.77817459305203" fill="none" stroke="black"/>
      <rect x="326.4" y="73" width="67.2" height="14" fill="none" stroke="blue"/>
      <rect x="318.4" y="69" width="83.2" height="22" fill="none" stroke="red"/>
      <text x="360" y="80" text-anchor="middle" dominant-baseline="central" font-family="Times,serif" font-size="14">triangle</text>
    </g>
    <!-- Node: pentagon -->
    <g class="node" id="pentagon">
      <title>pentagon</title>
      <ellipse cx="0" cy="160" rx="58.83128419472076" ry="15.556349186104047" fill="none" stroke="green"/>
      <polygon points="3.602377193939652e-15,144.44365081389594 55.951876195401255,155.19282373106296 34.580161223084126,172.58535086198904 -34.58016122308412,172.58535086198904 -55.951876195401255,155.19282373106296" fill="none" stroke="black"/>
      <rect x="-33.6" y="153" width="67.2" height="14" fill="none" stroke="blue"/>
      <rect x="-41.6" y="149" width="83.2" height="22" fill="none" stroke="red"/>
      <text x="0" y="160" text-anchor="middle" dominant-baseline="central" font-family="Times,serif" font-size="14">pentagon</text>
    </g>
    <!-- Node: hexagon -->
    <g class="node" id="hexagon">
      <title>hexagon</title>
      <ellipse cx="120" cy="160" rx="43.185800135384014" ry="12.701705922171765" fill="none" stroke="green"/>
      <polygon points="141.592900067692,149 163.185800135384,160 141.59290006769203,171 98.40709993230801,171 76.81419986461599,160 98.40709993230797,149" fill="none" stroke="black"/>
      <rect x="90.6" y="153" width="58.800000000000004" height="14" fill="none" stroke="blue"/>
      <rect x="82.6" y="149" width="74.80000000000001" height="22" fill="none" stroke="red"/>
      <text x="120" y="160" text-anchor="middle" dominant-baseline="central" font-family="Times,serif" font-size="14">hexagon</text>
    </g>
    <!-- Node: septagon -->
    <g class="node" id="septagon">
      <title>septagon</title>
      <ellipse cx="240" cy="160" rx="58.83128419472076" ry="15.556349186104047" fill="none" stroke="green"/>
      <polygon points="240,144.44365081389594 285.9961501374565,150.30077492831072 297.35626107093464,163.46161334984242 265.52593756349313,174.0157863148989 214.47406243650687,174.0157863148989 182.64373892906536,163.46161334984242 194.0038498625435,150.30077492831072" fill="none" stroke="black"/>
      <rect x="206.4" y="153" width="67.2" height="14" fill="none" stroke="blue"/>
      <rect x="198.4" y="149" width="83.2" height="22" fill="none" stroke="red"/>
      <text x="240" y="160" text-anchor="middle" dominant-baseline="central" font-family="Times,serif" font-size="14">septagon</text>
    </g>
    <!-- Node: octagon -->
    <g class="node" id="octagon">
      <title>octagon</title>
      <ellipse cx="360" cy="160" rx="40.481468290935545" ry="11.906314203216334" fill="none" stroke="green"/>
      <polygon points="375.4915872327538,149 397.40000000000003,155.44365081389594 397.40000000000003,164.55634918610406 375.4915872327538,171 344.5084127672462,171 322.59999999999997,164.55634918610406 322.59999999999997,155.44365081389594 344.5084127672462,149" fill="none" stroke="black"/>
      <rect x="330.6" y="153" width="58.800000000000004" height="14" fill="none" stroke="blue"/>
      <rect x="322.6" y="149" width="74.80000000000001" height="22" fill="none" stroke="red"/>
      <text x="360" y="160" text-anchor="middle" dominant-baseline="central" font-family="Times,serif" font-size="14">octagon</text>
    </g>
  </g>
</svg>
