<svg width="548" height="82" viewBox="0 0 548 82" xmlns="http://www.w3.org/2000/svg" xmlns:xlink="http://www.w3.org/1999/xlink">
  <!-- Generated by: https://github.com/CyberZHG/SVGDiagram -->
  <g id="graph0" class="graph" transform="translate(120.19999999999999,41) scale(1.0)">
    <!-- Node: A -->
    <g class="node" id="A">
      <title>A</title>
      <rect x="-112.19999999999999" y="-11" width="224.39999999999998" height="22" fill="none" stroke="black"/>
      <text x="-62.19999999999999" y="0" text-anchor="middle" dominant-baseline="central" font-family="Times,serif" font-size="14">horizontal</text>
      <line x1="-12.199999999999989" y1="-11" x2="-12.199999999999989" y2="11" stroke="black"/>
      <text x="16.80000000000001" y="0" text-anchor="middle" dominant-baseline="central" font-family="Times,serif" font-size="14">split</text>
      <line x1="45.80000000000001" y1="-11" x2="45.80000000000001" y2="11" stroke="black"/>
      <text x="79" y="0" text-anchor="middle" dominant-baseline="central" font-family="Times,serif" font-size="14">record</text>
    </g>
    <!-- Node: B -->
    <g class="node" id="B">
      <title>B</title>
      <rect x="108.4" y="-33" width="83.2" height="66" fill="none" stroke="black"/>
      <text x="150" y="-22" text-anchor="middle" dominant-baseline="central" font-family="Times,serif" font-size="14">vertical</text>
      <line x1="108.4" y1="-11" x2="191.60000000000002" y2="-11" stroke="black"/>
      <text x="150" y="0" text-anchor="middle" dominant-baseline="central" font-family="Times,serif" font-size="14">split</text>
      <line x1="108.4" y1="11" x2="191.60000000000002" y2="11" stroke="black"/>
      <text x="150" y="22" text-anchor="middle" dominant-baseline="central" font-family="Times,serif" font-size="14">record</text>
    </g>
    <!-- Node: C -->
    <g class="node" id="C">
      <title>C</title>
      <rect x="180.20000000000002" y="-33" width="239.59999999999997" height="66" fill="none" stroke="black"/>
      <text x="200.8" y="0" text-anchor="middle" dominant-baseline="central" font-family="Times,serif" font-size="14">foo</text>
      <line x1="221.4" y1="-33" x2="221.4" y2="33" stroke="black"/>
      <text x="300" y="-22" text-anchor="middle" dominant-baseline="central" font-family="Times,serif" font-size="14">foobar</text>
      <line x1="221.4" y1="-11" x2="378.6" y2="-11" stroke="black"/>
      <text x="254.60000000000002" y="0" text-anchor="middle" dominant-baseline="central" font-family="Times,serif" font-size="14">nested</text>
      <line x1="287.8" y1="-11" x2="287.8" y2="11" stroke="black"/>
      <line x1="312.2" y1="-11" x2="312.2" y2="11" stroke="black"/>
      <text x="345.4" y="0" text-anchor="middle" dominant-baseline="central" font-family="Times,serif" font-size="14">record</text>
      <line x1="221.4" y1="11" x2="378.6" y2="11" stroke="black"/>
      <text x="300" y="22" text-anchor="middle" dominant-baseline="central" font-family="Times,serif" font-size="14">barfoo</text>
      <line x1="378.6" y1="-33" x2="378.6" y2="33" stroke="black"/>
      <text x="399.20000000000005" y="0" text-anchor="middle" dominant-baseline="central" font-family="Times,serif" font-size="14">bar</text>
    </g>
  </g>
</svg>
