<svg width="402.2118277832225" height="202.21182778322247" viewBox="0 0 402.2118277832225 202.21182778322247" xmlns="http://www.w3.org/2000/svg" xmlns:xlink="http://www.w3.org/1999/xlink">
  <!-- Generated by: https://github.com/CyberZHG/SVGDiagram -->
  <g id="graph0" class="graph" transform="translate(63.19570294468082,39.01612483854164) scale(1.0)">
    <!-- Node: ellipse -->
    <g class="node" id="ellipse">
      <title>ellipse</title>
      <ellipse cx="0" cy="0" rx="45.96194077712559" ry="15.556349186104047" fill="none" stroke="black"/>
      <rect x="-24.5" y="-7" width="49" height="14" fill="none" stroke="blue"/>
      <rect x="-32.5" y="-11" width="65" height="22" fill="none" stroke="red"/>
      <text x="0" y="0" text-anchor="middle" dominant-baseline="central" font-family="Times,serif" font-size="14">ellipse</text>
    </g>
    <!-- Node: none -->
    <g class="node" id="none">
      <title>none</title>
      <rect x="136" y="-7" width="28" height="14" fill="none" stroke="blue"/>
      <rect x="128" y="-11" width="44" height="22" fill="none" stroke="red"/>
      <text x="150" y="0" text-anchor="middle" dominant-baseline="central" font-family="Times,serif" font-size="14">none</text>
    </g>
    <!-- Node: circle -->
    <g class="node" id="circle">
      <title>circle</title>
      <circle cx="300" cy="0" r="31.016124838541646" fill="none" stroke="black"/>
      <rect x="279" y="-7" width="42" height="14" fill="none" stroke="blue"/>
      <rect x="271" y="-11" width="58" height="22" fill="none" stroke="red"/>
      <text x="300" y="0" text-anchor="middle" dominant-baseline="central" font-family="Times,serif" font-size="14">circle</text>
    </g>
    <!-- Node: doublecircle -->
    <g class="node" id="doublecircle">
      <title>doublecircle</title>
      <circle cx="0" cy="100" r="51.19570294468082" fill="none" stroke="black"/>
      <circle cx="0" cy="100" r="55.19570294468082" fill="none" stroke="black"/>
      <rect x="-42" y="93" width="84" height="14" fill="none" stroke="blue"/>
      <rect x="-50" y="89" width="100" height="22" fill="none" stroke="red"/>
      <text x="0" y="100" text-anchor="middle" dominant-baseline="central" font-family="Times,serif" font-size="14">doublecircle</text>
    </g>
    <!-- Node: rect -->
    <g class="node" id="rect">
      <title>rect</title>
      <rect x="128" y="89" width="44" height="22" fill="none" stroke="black"/>
      <rect x="136" y="93" width="28" height="14" fill="none" stroke="blue"/>
      <rect x="128" y="89" width="44" height="22" fill="none" stroke="red"/>
      <text x="150" y="100" text-anchor="middle" dominant-baseline="central" font-family="Times,serif" font-size="14">rect</text>
    </g>
  </g>
</svg>
