<svg width="393.69158723275376" height="251.11269837220811" viewBox="0 0 393.69158723275376 251.11269837220811" xmlns="http://www.w3.org/2000/svg" xmlns:xlink="http://www.w3.org/1999/xlink">
  <!-- Generated by: https://github.com/CyberZHG/SVGDiagram -->
  <g id="graph0" class="graph" transform="translate(60.891587232753764,27.556349186104047) scale(1.0)">
    <!-- Node: ellipse -->
    <g class="node" id="ellipse">
      <title>ellipse</title>
      <ellipse cx="0" cy="0" rx="52.891587232753764" ry="15.556349186104047" fill="none" stroke="black"/>
      <rect x="-29.400000000000002" y="-7" width="58.800000000000004" height="14" fill="none" stroke="blue"/>
      <rect x="-37.400000000000006" y="-11" width="74.80000000000001" height="22" fill="none" stroke="red"/>
      <text x="0" y="0" text-anchor="middle" dominant-baseline="central" font-family="Times,serif" font-size="14">ellipse</text>
    </g>
    <!-- Node: doubleellipse -->
    <g class="node" id="doubleellipse">
      <title>doubleellipse</title>
      <ellipse cx="150" cy="0" rx="88.52976900455576" ry="15.556349186104047" fill="none" stroke="black"/>
      <ellipse cx="150" cy="0" rx="92.52976900455576" ry="19.556349186104047" fill="none" stroke="black"/>
      <rect x="95.4" y="-7" width="109.2" height="14" fill="none" stroke="blue"/>
      <rect x="87.4" y="-11" width="125.2" height="22" fill="none" stroke="red"/>
      <text x="150" y="0" text-anchor="middle" dominant-baseline="central" font-family="Times,serif" font-size="14">doubleellipse</text>
    </g>
    <!-- Node: none -->
    <g class="node" id="none">
      <title>none</title>
      <rect x="283.2" y="-7" width="33.6" height="14" fill="none" stroke="blue"/>
      <rect x="275.2" y="-11" width="49.6" height="22" fill="none" stroke="red"/>
      <text x="300" y="0" text-anchor="middle" dominant-baseline="central" font-family="Times,serif" font-size="14">none</text>
    </g>
    <!-- Node: circle -->
    <g class="node" id="circle">
      <title>circle</title>
      <circle cx="0" cy="100" r="34.97484810546001" fill="none" stroke="black"/>
      <rect x="-25.199999999999996" y="93" width="50.39999999999999" height="14" fill="none" stroke="blue"/>
      <rect x="-33.199999999999996" y="89" width="66.39999999999999" height="22" fill="none" stroke="red"/>
      <text x="0" y="100" text-anchor="middle" dominant-baseline="central" font-family="Times,serif" font-size="14">circle</text>
    </g>
    <!-- Node: doublecircle -->
    <g class="node" id="doublecircle">
      <title>doublecircle</title>
      <circle cx="150" cy="100" r="59.42692992238451" fill="none" stroke="black"/>
      <circle cx="150" cy="100" r="63.42692992238451" fill="none" stroke="black"/>
      <rect x="99.60000000000001" y="93" width="100.79999999999998" height="14" fill="none" stroke="blue"/>
      <rect x="91.60000000000001" y="89" width="116.79999999999998" height="22" fill="none" stroke="red"/>
      <text x="150" y="100" text-anchor="middle" dominant-baseline="central" font-family="Times,serif" font-size="14">doublecircle</text>
    </g>
    <!-- Node: rect -->
    <g class="node" id="rect">
      <title>rect</title>
      <rect x="275.2" y="89" width="49.6" height="22" fill="none" stroke="black"/>
      <rect x="283.2" y="93" width="33.6" height="14" fill="none" stroke="blue"/>
      <rect x="275.2" y="89" width="49.6" height="22" fill="none" stroke="red"/>
      <text x="300" y="100" text-anchor="middle" dominant-baseline="central" font-family="Times,serif" font-size="14">rect</text>
    </g>
    <!-- Node: polygon -->
    <g class="node" id="polygon">
      <title>polygon</title>
      <ellipse cx="0" cy="200" rx="52.891587232753764" ry="15.556349186104047" fill="none" stroke="green"/>
      <polygon points="3.2386756503207453e-15,184.44365081389594 41.35230805627099,190.30077492831072 51.565484712811426,203.46161334984242 22.948799636409706,214.0157863148989 -22.9487996364097,214.0157863148989 -51.565484712811426,203.46161334984242 -41.352308056271,190.30077492831072" fill="none" stroke="black"/>
      <rect x="-29.400000000000002" y="193" width="58.800000000000004" height="14" fill="none" stroke="blue"/>
      <rect x="-37.400000000000006" y="189" width="74.80000000000001" height="22" fill="none" stroke="red"/>
      <text x="0" y="200" text-anchor="middle" dominant-baseline="central" font-family="Times,serif" font-size="14">polygon</text>
    </g>
  </g>
</svg>
