<svg width="235" height="82" viewBox="0 0 235 82" xmlns="http://www.w3.org/2000/svg" xmlns:xlink="http://www.w3.org/1999/xlink">
  <!-- Generated by: https://github.com/CyberZHG/SVGDiagram -->
  <g id="graph0" class="graph" transform="translate(42.5,41) scale(1.0)">
    <!-- Node: A -->
    <g class="node" id="A">
      <title>A</title>
      <rect x="-34.5" y="-33" width="69" height="66" fill="none" stroke="black"/>
      <line x1="-11.5" y1="-33" x2="-11.5" y2="33" stroke="black"/>
      <line x1="-11.5" y1="-11" x2="11.5" y2="-11" stroke="black"/>
      <text x="0" y="0" text-anchor="middle" dominant-baseline="central" font-family="Times,serif" font-size="14">A</text>
      <line x1="-11.5" y1="11" x2="11.5" y2="11" stroke="black"/>
      <line x1="11.5" y1="-33" x2="11.5" y2="33" stroke="black"/>
    </g>
    <!-- Node: B -->
    <g class="node" id="B">
      <title>B</title>
      <rect x="115.5" y="-33" width="69" height="66" fill="none" stroke="black"/>
      <line x1="115.5" y1="-11" x2="184.5" y2="-11" stroke="black"/>
      <line x1="138.5" y1="-11" x2="138.5" y2="11" stroke="black"/>
      <text x="150" y="0" text-anchor="middle" dominant-baseline="central" font-family="Times,serif" font-size="14">B</text>
      <line x1="161.5" y1="-11" x2="161.5" y2="11" stroke="black"/>
      <line x1="115.5" y1="11" x2="184.5" y2="11" stroke="black"/>
    </g>
    <!-- Edge: edge1 (A -> B) -->
    <g class="edge" id="edge1">
      <title>A->B</title>
      <path d="M 12 -4.800000000000001 C 18.333333333333332 -7.333333333333334 35.333333333333336 -24.133333333333333 50 -20 C 64.66666666666667 -15.866666666666667 85.33333333333333 15.866666666666667 100 20 C 109.66533333333334 22.723866666666666 120.343989 16.356784400000002 128.315481673 10.972682700800004" fill="none" stroke="black"/>
      <polygon points="136.7236667407665,5.613504602264182 130.1721131912523,13.939797059765768 126.40973091898492,8.03687577981224 136.7236667407665,5.613504602264182" fill="black" stroke="black"/>
    </g>
  </g>
</svg>
