<svg width="467.53582112188167" height="93.94969621092002" viewBox="0 0 467.53582112188167 93.94969621092002" xmlns="http://www.w3.org/2000/svg" xmlns:xlink="http://www.w3.org/1999/xlink">
  <!-- Generated by: https://github.com/CyberZHG/SVGDiagram -->
  <g id="graph0" class="graph" transform="translate(46.97484810546001,46.97484810546001) scale(1.0)">
    <!-- Node: circle -->
    <g class="node" id="circle">
      <title>circle</title>
      <circle cx="0" cy="0" r="34.97484810546001" fill="none" stroke="black"/>
      <circle cx="0" cy="0" r="38.97484810546001" fill="none" stroke="black"/>
      <text x="0" y="0" text-anchor="middle" dominant-baseline="central" font-family="Times,serif" font-size="14">circle</text>
    </g>
    <!-- Node: ellipse -->
    <g class="node" id="ellipse">
      <title>ellipse</title>
      <ellipse cx="120" cy="0" rx="52.891587232753764" ry="15.556349186104047" fill="none" stroke="black"/>
      <ellipse cx="120" cy="0" rx="56.891587232753764" ry="19.556349186104047" fill="none" stroke="black"/>
      <text x="120" y="0" text-anchor="middle" dominant-baseline="central" font-family="Times,serif" font-size="14">ellipse</text>
    </g>
    <!-- Node: rect -->
    <g class="node" id="rect">
      <title>rect</title>
      <rect x="215.2" y="-11" width="49.6" height="22" fill="none" stroke="black"/>
      <rect x="211.2" y="-15" width="57.6" height="30" fill="none" stroke="black"/>
      <text x="240" y="0" text-anchor="middle" dominant-baseline="central" font-family="Times,serif" font-size="14">rect</text>
    </g>
    <!-- Node: octagon -->
    <g class="node" id="octagon">
      <title>octagon</title>
      <polygon points="380.2407341454678,-14.372192613640143 408.8654548863765,-5.953157101608167 408.8654548863765,5.953157101608167 380.2407341454678,14.372192613640143 339.75926585453226,14.372192613640143 311.1345451136235,5.953157101608169 311.1345451136235,-5.9531571016081655 339.7592658545322,-14.37219261364014" fill="none" stroke="black"/>
      <polygon points="381.77146787492813,-18.06771074368529 412.56097301642166,-7.483890831068527 412.56097301642166,7.483890831068527 381.77146787492813,18.06771074368529 338.22853212507187,18.06771074368529 307.43902698357834,7.483890831068528 307.43902698357834,-7.483890831068525 338.22853212507187,-18.067710743685286" fill="none" stroke="black"/>
      <text x="360" y="0" text-anchor="middle" dominant-baseline="central" font-family="Times,serif" font-size="14">octagon</text>
    </g>
  </g>
</svg>
