<svg width="239.2" height="82" viewBox="0 0 239.2 82" xmlns="http://www.w3.org/2000/svg" xmlns:xlink="http://www.w3.org/1999/xlink">
  <!-- Generated by: https://github.com/CyberZHG/SVGDiagram -->
  <g id="graph0" class="graph" transform="translate(44.599999999999994,41) scale(1.0)">
    <!-- Node: A -->
    <g class="node" id="A">
      <title>A</title>
      <rect x="-36.599999999999994" y="-33" width="73.19999999999999" height="66" fill="none" stroke="black"/>
      <line x1="-12.199999999999996" y1="-33" x2="-12.199999999999996" y2="33" stroke="black"/>
      <line x1="-12.199999999999996" y1="-11" x2="12.200000000000003" y2="-11" stroke="black"/>
      <text x="3.552713678800501e-15" y="0" text-anchor="middle" dominant-baseline="central" font-family="Times,serif" font-size="14">A</text>
      <line x1="-12.199999999999996" y1="11" x2="12.200000000000003" y2="11" stroke="black"/>
      <line x1="12.200000000000003" y1="-33" x2="12.200000000000003" y2="33" stroke="black"/>
    </g>
    <!-- Node: B -->
    <g class="node" id="B">
      <title>B</title>
      <rect x="113.4" y="-33" width="73.19999999999999" height="66" fill="none" stroke="black"/>
      <line x1="113.4" y1="-11" x2="186.6" y2="-11" stroke="black"/>
      <line x1="137.8" y1="-11" x2="137.8" y2="11" stroke="black"/>
      <text x="150" y="0" text-anchor="middle" dominant-baseline="central" font-family="Times,serif" font-size="14">B</text>
      <line x1="162.20000000000002" y1="-11" x2="162.20000000000002" y2="11" stroke="black"/>
      <line x1="113.4" y1="11" x2="186.6" y2="11" stroke="black"/>
    </g>
    <!-- Edge: edge1 (A -> B) -->
    <g class="edge" id="edge1">
      <title>A-&gt;B</title>
      <path d="M 12.7 -5.079999999999999 C 18.916666666666664 -7.566666666666666 35.45 -24.18 50 -20 C 64.55 -15.82 85.45 15.82 100 20 C 109.5157 22.733719999999998 119.87970339999998 16.573798640000003 127.65137715279998 11.288277058880004" fill="none" stroke="black"/>
      <polygon points="136.02717471602946,5.898982370393898 129.51146547007403,14.253354460633297 125.72374903541169,8.366657236332673 136.02717471602946,5.898982370393898" fill="black" stroke="black"/>
    </g>
  </g>
</svg>
