<svg width="198.52691193458116" height="84.3210103955868" viewBox="0 0 198.52691193458116 84.3210103955868" xmlns="http://www.w3.org/2000/svg" xmlns:xlink="http://www.w3.org/1999/xlink">
  <!-- Generated by: https://github.com/CyberZHG/SVGDiagram -->
  <g id="graph0" class="graph" transform="translate(24.263455967290593,42.1605051977934) scale(1.0)">
    <!-- Node: A -->
    <g class="node" id="A">
      <title>A</title>
      <ellipse cx="0" cy="0" rx="16.263455967290593" ry="15.556349186104047" fill="none" stroke="black"/>
      <text x="0" y="0" text-anchor="middle" dominant-baseline="central" font-family="Times,serif" font-size="14">A</text>
    </g>
    <!-- Node: B -->
    <g class="node" id="B">
      <title>B</title>
      <ellipse cx="150" cy="0" rx="16.263455967290593" ry="15.556349186104047" fill="none" stroke="black"/>
      <text x="150" y="0" text-anchor="middle" dominant-baseline="central" font-family="Times,serif" font-size="14">B</text>
    </g>
    <!-- Edge: edge1 (A -> B) -->
    <g class="edge" id="edge1">
      <title>A->B</title>
      <path d="M 16.149252587006856 4.306467356535163 C 25.957710489172378 6.922056130445969 55.38308419566896 20 75 20 C 94.61691580433104 20 124.04228951082762 6.922056130445968 122.93876461844485 7.982992481363974" fill="none" stroke="black"/>
      <polygon points="132.41642639981606,4.789726663418421 124.057369702805,11.299424900368784 121.82234086084728,4.665825117775841 132.41642639981606,4.789726663418421" fill="black" stroke="black"/>
      <text x="75.34227937452313" y="27.160505197793402" text-anchor="middle" dominant-baseline="central" font-family="Times,serif" font-size="14">A → B</text>
    </g>
    <!-- Edge: edge2 (B -> A) -->
    <g class="edge" id="edge2">
      <title>B->A</title>
      <path d="M 133.85074741299314 -4.306467356535162 C 124.04228951082762 -6.922056130445968 94.61691580433104 -20 75 -20 C 55.38308419566896 -20 25.957710489172378 -6.922056130445969 27.061235381555154 -7.982992481363976" fill="none" stroke="black"/>
      <polygon points="17.583573600183936,-4.7897266634184215 25.942630297194988,-11.299424900368784 28.177659139152713,-4.665825117775844 17.583573600183936,-4.7897266634184215" fill="black" stroke="black"/>
      <text x="74.65772062547686" y="-27.160505197793402" text-anchor="middle" dominant-baseline="central" font-family="Times,serif" font-size="14">A ← B</text>
    </g>
  </g>
</svg>
