<svg width="200.50681092190354" height="84.83086551072266" viewBox="0 0 200.50681092190354 84.83086551072266" xmlns="http://www.w3.org/2000/svg" xmlns:xlink="http://www.w3.org/1999/xlink">
  <!-- Generated by: https://github.com/CyberZHG/SVGDiagram -->
  <g id="graph0" class="graph" transform="translate(25.25340546095176,42.41543275536133) scale(1.0)">
    <!-- Node: A -->
    <g class="node" id="A">
      <title>A</title>
      <ellipse cx="0" cy="0" rx="17.25340546095176" ry="15.556349186104047" fill="none" stroke="black"/>
      <text x="0" y="0" text-anchor="middle" dominant-baseline="central" font-family="Times,serif" font-size="14">A</text>
    </g>
    <!-- Node: B -->
    <g class="node" id="B">
      <title>B</title>
      <ellipse cx="150" cy="0" rx="17.25340546095176" ry="15.556349186104047" fill="none" stroke="black"/>
      <text x="150" y="0" text-anchor="middle" dominant-baseline="central" font-family="Times,serif" font-size="14">B</text>
    </g>
    <!-- Edge: edge1 (A -> B) -->
    <g class="edge" id="edge1">
      <title>A-&gt;B</title>
      <path d="M 17.046448551190192 4.485907513471103 C 26.87204045932516 7.071589594559253 56.67609433289978 19.981429745659216 76 20 C 90.24171847665286 20.013686277449157 109.28709184943641 13.035321162825557 122.12219554319664 8.336099655871449" fill="none" stroke="black"/>
      <polygon points="131.5586656302562,5.0897053633948515 123.2412003529337,11.652461747760688 120.96400616486058,5.033218087809344 131.5586656302562,5.0897053633948515" fill="black" stroke="black"/>
      <text x="74.9721352435901" y="27.41543275536133" text-anchor="middle" dominant-baseline="central" font-family="Times,serif" font-size="14">A&#160;â†’&#160;B</text>
    </g>
    <!-- Edge: edge2 (B -> A) -->
    <g class="edge" id="edge2">
      <title>B-&gt;A</title>
      <path d="M 132.98988255379155 -4.5973290395158 C 123.49156879482629 -7.164440866263167 95.32390566710022 -20.018570254340784 76 -20 C 61.60369027801034 -19.986165160516116 41.390636297722224 -12.81735324658347 27.955279191582267 -8.092995724108576" fill="none" stroke="black"/>
      <polygon points="18.48347208233655,-4.961070325002328 26.87910710327582,-11.42352439409853 29.076690415736596,-4.777425720079769 18.48347208233655,-4.961070325002328" fill="black" stroke="black"/>
      <text x="74.9721352435901" y="-27.41543275536133" text-anchor="middle" dominant-baseline="central" font-family="Times,serif" font-size="14">A&#160;â†&#160;B</text>
    </g>
  </g>
</svg>
