<svg width="200.50681092190354" height="84.27481437188445" viewBox="0 0 200.50681092190354 84.27481437188445" xmlns="http://www.w3.org/2000/svg" xmlns:xlink="http://www.w3.org/1999/xlink">
  <!-- Generated by: https://github.com/CyberZHG/SVGDiagram -->
  <g id="graph0" class="graph" transform="translate(25.25340546095176,42.13740718594222) scale(1.0)">
    <!-- Node: A -->
    <g class="node" id="A">
      <title>A</title>
      <ellipse cx="0" cy="0" rx="17.25340546095176" ry="15.556349186104047" fill="none" stroke="black"/>
      <rect x="-4.2" y="-7" width="8.4" height="14" fill="none" stroke="blue"/>
      <rect x="-12.2" y="-11" width="24.4" height="22" fill="none" stroke="red"/>
      <text x="0" y="0" text-anchor="middle" dominant-baseline="central" font-family="Times,serif" font-size="14">A</text>
    </g>
    <!-- Node: B -->
    <g class="node" id="B">
      <title>B</title>
      <ellipse cx="150" cy="0" rx="17.25340546095176" ry="15.556349186104047" fill="none" stroke="black"/>
      <rect x="145.8" y="-7" width="8.4" height="14" fill="none" stroke="blue"/>
      <rect x="137.8" y="-11" width="24.4" height="22" fill="none" stroke="red"/>
      <text x="150" y="0" text-anchor="middle" dominant-baseline="central" font-family="Times,serif" font-size="14">B</text>
    </g>
    <!-- Edge: edge1 (A -> B) -->
    <g class="edge" id="edge1">
      <title>A-&gt;B</title>
      <line x1="17.0286172306662" y1="4.54096459484432" x2="26.6905143588885" y2="7.1174704957036" stroke="blue"/>
      <line x1="55.6762057435554" y1="20" x2="75" y2="20" stroke="blue"/>
      <line x1="75" y1="20" x2="94.3237942564446" y2="20" stroke="blue"/>
      <line x1="123.3094856411115" y1="7.117470495703598" x2="132.9713827693338" y2="4.5409645948443185" stroke="blue"/>
      <path d="M 17.0286172306662 4.54096459484432 C 26.6905143588885 7.1174704957036 55.6762057435554 20 75 20 C 89.31893154402545 20 108.94302722511233 12.926447817251429 122.07890716657306 8.21404735310433" fill="none" stroke="black"/>
      <polygon points="131.53718650694245,5.024594006143199 123.17980988848869,11.536449045786094 120.94306934841845,4.903426223843878 131.53718650694245,5.024594006143199" fill="black" stroke="black"/>
      <rect x="54.337718980869" y="20.137407185942223" width="42" height="14" fill="none" stroke="blue"/>
      <rect x="54.337718980869" y="20.137407185942223" width="42" height="14" fill="none" stroke="red"/>
      <text x="75.337718980869" y="27.137407185942223" text-anchor="middle" dominant-baseline="central" font-family="Times,serif" font-size="14">A&#160;â†’&#160;B</text>
    </g>
    <!-- Edge: edge2 (B -> A) -->
    <g class="edge" id="edge2">
      <title>B-&gt;A</title>
      <line x1="132.9713827693338" y1="-4.5409645948443185" x2="123.3094856411115" y2="-7.117470495703598" stroke="blue"/>
      <line x1="94.3237942564446" y1="-20" x2="75" y2="-20" stroke="blue"/>
      <line x1="75" y1="-20" x2="55.6762057435554" y2="-20" stroke="blue"/>
      <line x1="26.6905143588885" y1="-7.1174704957036" x2="17.0286172306662" y2="-4.54096459484432" stroke="blue"/>
      <path d="M 132.9713827693338 -4.5409645948443185 C 123.3094856411115 -7.117470495703598 94.3237942564446 -20 75 -20 C 60.681068455974554 -20 41.05697277488768 -12.92644781725143 27.92109283342693 -8.214047353104332" fill="none" stroke="black"/>
      <polygon points="18.462813493057546,-5.024594006143203 26.82019011151129,-11.536449045786101 29.05693065158155,-4.903426223843891 18.462813493057546,-5.024594006143203" fill="black" stroke="black"/>
      <rect x="53.66228101913099" y="-34.13740718594222" width="42" height="14" fill="none" stroke="blue"/>
      <rect x="53.66228101913099" y="-34.13740718594222" width="42" height="14" fill="none" stroke="red"/>
      <text x="74.66228101913099" y="-27.137407185942223" text-anchor="middle" dominant-baseline="central" font-family="Times,serif" font-size="14">A&#160;â†&#160;B</text>
    </g>
  </g>
</svg>
