<svg width="262.26328293011045" height="136.47897920845912" viewBox="0 0 262.26328293011045 136.47897920845912" xmlns="http://www.w3.org/2000/svg" xmlns:xlink="http://www.w3.org/1999/xlink">
  <!-- Generated by: https://github.com/CyberZHG/SVGDiagram -->
  <g id="graph0" class="graph" transform="translate(127.77253258258311,68.1777917843124) scale(1.0)">
    <!-- Node: A -->
    <g class="node" id="A">
      <title>A</title>
      <ellipse cx="0" cy="0" rx="60.81118318204309" ry="15.556349186104047" fill="none" stroke="black"/>
      <text x="0" y="0" text-anchor="middle" dominant-baseline="central" font-family="Times,serif" font-size="14">Self Loops</text>
    </g>
    <!-- Edge: edge1 (A -> A) -->
    <g class="edge" id="edge1">
      <title>A->A</title>
      <path d="M -42.85436799420725 -11.482793296193998 C -59.72936799420725 -22.732793296194 -91.3111831820431 -11.25000000000001 -91.3111831820431 -1.118239482102467e-14 C -91.3111831820431 9.14624999999999 -70.43658237915444 18.446369152192037 -53.56140010449908 15.559390782611871" fill="none" stroke="black"/>
      <polygon points="-44.26885639495798,12.021345884779663 -52.36901573953359,18.85050532006044 -54.85977080882135,12.308629504606792 -44.26885639495798,12.021345884779663" fill="black" stroke="black"/>
      <text x="-105.77253258258311" y="-1.7124179878522225" text-anchor="middle" dominant-baseline="central" font-family="Times,serif" font-size="14">Left</text>
    </g>
    <!-- Edge: edge2 (A -> A) -->
    <g class="edge" id="edge2">
      <title>A->A</title>
      <path d="M 42.85436799420728 11.482793296193991 C 59.72936799420728 22.73279329619399 91.3111831820431 11.25 91.3111831820431 0 C 91.3111831820431 -9.14625 70.43658237915444 -18.446369152192045 53.561400104499086 -15.559390782611871" fill="none" stroke="black"/>
      <polygon points="44.268856394957986,-12.021345884779663 52.369015739533594,-18.85050532006044 54.85977080882136,-12.308629504606795 44.268856394957986,-12.021345884779663" fill="black" stroke="black"/>
      <text x="108.99075034752732" y="-0.6632486268690936" text-anchor="middle" dominant-baseline="central" font-family="Times,serif" font-size="14">Right</text>
    </g>
    <!-- Edge: edge3 (A -> A) -->
    <g class="edge" id="edge3">
      <title>A->A</title>
      <path d="M 4.291732501420883 -16.016963747797405 C 15.541732501420885 -32.891963747797405 11.250000000000004 -46.05634918610404 2.8201380305587566e-15 -46.05634918610404 C -8.831249999999997 -46.05634918610404 -13.37464161068808 -37.94412576938354 -9.478038440783958 -26.29281415331872" fill="none" stroke="black"/>
      <polygon points="-4.97369468023355,-17.36816466298348 -12.604013162192032,-24.718555119543108 -6.354836015045868,-27.87256605541289 -4.97369468023355,-17.36816466298348" fill="black" stroke="black"/>
      <text x="-0.2519411585531666" y="-53.17779178431241" text-anchor="middle" dominant-baseline="central" font-family="Times,serif" font-size="14">Top</text>
    </g>
    <!-- Edge: edge4 (A -> A) -->
    <g class="edge" id="edge4">
      <title>A->A</title>
      <path d="M -4.291732501420881 16.016963747797405 C -15.541732501420881 32.891963747797405 -11.249999999999996 46.05634918610404 2.8201380305587566e-15 46.05634918610404 C 8.831250000000002 46.05634918610404 13.374641610688084 37.94412576938354 9.478038440783962 26.29281415331872" fill="none" stroke="black"/>
      <polygon points="4.973694680233553,17.36816466298348 12.604013162192036,24.718555119543105 6.354836015045877,27.87256605541289 4.973694680233553,17.36816466298348" fill="black" stroke="black"/>
      <text x="0.25339150021231965" y="53.301187424146725" text-anchor="middle" dominant-baseline="central" font-family="Times,serif" font-size="14">Bottom</text>
    </g>
  </g>
</svg>
