<svg width="520" height="82" viewBox="0 0 520 82" xmlns="http://www.w3.org/2000/svg" xmlns:xlink="http://www.w3.org/1999/xlink">
  <!-- Generated by: https://github.com/CyberZHG/SVGDiagram -->
  <g id="graph0" class="graph" transform="translate(105.5,41) scale(1.0)">
    <!-- Node: A -->
    <g class="node" id="A">
      <title>A</title>
      <rect x="-97.5" y="-11" width="195" height="22" fill="none" stroke="black"/>
      <text x="-54.5" y="0" text-anchor="middle" dominant-baseline="central" font-family="Times,serif" font-size="14">horizontal</text>
      <line x1="-11.5" y1="-11" x2="-11.5" y2="11" stroke="black"/>
      <text x="14" y="0" text-anchor="middle" dominant-baseline="central" font-family="Times,serif" font-size="14">split</text>
      <line x1="39.5" y1="-11" x2="39.5" y2="11" stroke="black"/>
      <text x="68.5" y="0" text-anchor="middle" dominant-baseline="central" font-family="Times,serif" font-size="14">record</text>
    </g>
    <!-- Node: B -->
    <g class="node" id="B">
      <title>B</title>
      <rect x="114" y="-33" width="72" height="66" fill="none" stroke="black"/>
      <text x="150" y="-22" text-anchor="middle" dominant-baseline="central" font-family="Times,serif" font-size="14">vertical</text>
      <line x1="114" y1="-11" x2="186" y2="-11" stroke="black"/>
      <text x="150" y="0" text-anchor="middle" dominant-baseline="central" font-family="Times,serif" font-size="14">split</text>
      <line x1="114" y1="11" x2="186" y2="11" stroke="black"/>
      <text x="150" y="22" text-anchor="middle" dominant-baseline="central" font-family="Times,serif" font-size="14">record</text>
    </g>
    <!-- Node: C -->
    <g class="node" id="C">
      <title>C</title>
      <rect x="193.5" y="-33" width="213" height="66" fill="none" stroke="black"/>
      <text x="212" y="0" text-anchor="middle" dominant-baseline="central" font-family="Times,serif" font-size="14">foo</text>
      <line x1="230.5" y1="-33" x2="230.5" y2="33" stroke="black"/>
      <text x="300" y="-22" text-anchor="middle" dominant-baseline="central" font-family="Times,serif" font-size="14">foobar</text>
      <line x1="230.5" y1="-11" x2="369.5" y2="-11" stroke="black"/>
      <text x="259.5" y="0" text-anchor="middle" dominant-baseline="central" font-family="Times,serif" font-size="14">nested</text>
      <line x1="288.5" y1="-11" x2="288.5" y2="11" stroke="black"/>
      <line x1="311.5" y1="-11" x2="311.5" y2="11" stroke="black"/>
      <text x="340.5" y="0" text-anchor="middle" dominant-baseline="central" font-family="Times,serif" font-size="14">record</text>
      <line x1="230.5" y1="11" x2="369.5" y2="11" stroke="black"/>
      <text x="300" y="22" text-anchor="middle" dominant-baseline="central" font-family="Times,serif" font-size="14">barfoo</text>
      <line x1="369.5" y1="-33" x2="369.5" y2="33" stroke="black"/>
      <text x="388" y="0" text-anchor="middle" dominant-baseline="central" font-family="Times,serif" font-size="14">bar</text>
    </g>
  </g>
</svg>
