<svg width="803.3322524400944" height="481.1837661840736" viewBox="0 0 803.3322524400944 481.1837661840736" xmlns="http://www.w3.org/2000/svg" xmlns:xlink="http://www.w3.org/1999/xlink">
  <!-- Generated by: https://github.com/CyberZHG/SVGDiagram -->
  <g id="graph0" class="graph" transform="translate(174.4140966526938,46.18376618407357) scale(1.0)">
    <!-- Node: node_0 -->
    <g class="node" id="node_0">
      <title>node_0</title>
      <polygon points="8.503688472232546e-15,-38.18376618407357 132.07870774972125,-11.79943266011817 81.62913057949187,30.891315752154956 -81.62913057949186,30.891315752154956 -132.07870774972125,-11.799432660118164" fill="floralwhite" stroke="darkgrey"/>
      <text x="0" y="0" text-anchor="middle" dominant-baseline="central" font-family="Times,serif" font-size="14">Part&#160;the&#160;Veil&#160;of&#160;Snow</text>
    </g>
    <!-- Node: node_1 -->
    <g class="node" id="node_1">
      <title>node_1</title>
      <polygon points="144.5714407814391,53 189.14288156287822,80 144.57144078143915,106.99999999999999 55.42855921856094,107.00000000000001 10.857118437121784,80.00000000000001 55.42855921856085,53.000000000000014" fill="lightsalmon" stroke="peru" stroke-width="2"/>
      <text x="100" y="80" text-anchor="middle" dominant-baseline="central" fill="saddlebrown" font-family="Times,serif" font-size="14">The&#160;Devil's&#160;Wall</text>
    </g>
    <!-- Node: node_2 -->
    <g class="node" id="node_2">
      <title>node_2</title>
      <polygon points="200,121.81623381592644 308.5774505648613,136.19281118767177 335.3938662780236,168.4966873132496 260.2559391522843,194.40238459111544 139.7440608477157,194.40238459111544 64.60613372197642,168.4966873132496 91.42254943513872,136.19281118767177" fill="papayawhip" stroke="darkgoldenrod" stroke-width="3"/>
      <text x="200" y="160" text-anchor="middle" dominant-baseline="central" fill="goldenrod" font-family="Times,serif" font-size="14">Stranger&#160;in&#160;the&#160;Night</text>
    </g>
    <!-- Node: node_3 -->
    <g class="node" id="node_3">
      <title>node_3</title>
      <polygon points="342.41546878700495,213 402.4,228.81623381592644 402.4,251.18376618407356 342.41546878700495,267 257.58453121299505,267 197.6,251.18376618407356 197.6,228.81623381592644 257.584531212995,213" fill="lightgreen" stroke="limegreen" stroke-width="4"/>
      <text x="300" y="240" text-anchor="middle" dominant-baseline="central" fill="olivedrab" font-family="Times,serif" font-size="14">Night&#160;on&#160;Bald&#160;Mountain</text>
    </g>
    <!-- Node: node_4 -->
    <g class="node" id="node_4">
      <title>node_4</title>
      <polygon points="400,281.8162338159264 462.5418801276732,290.7495380973361 495.81971946803463,313.3694585856755 484.26244715174136,339.09188309203677 433.2778393403614,355.8810033169884 366.7221606596386,355.8810033169884 315.73755284825864,339.0918830920368 304.18028053196537,313.3694585856755 337.45811987232673,290.7495380973361" fill="deepskyblue" stroke="dodgerblue" stroke-width="5"/>
      <text x="400" y="320" text-anchor="middle" dominant-baseline="central" fill="royalblue" font-family="Times,serif" font-size="14">Exile's&#160;Shadow</text>
    </g>
    <!-- Node: node_5 -->
    <g class="node" id="node_5">
      <title>node_5</title>
      <polygon points="537.3657650667842,373 597.8248429604846,383.3130823037528 620.9181557874007,400 597.8248429604846,416.6869176962472 537.3657650667842,427 462.6342349332158,427 402.1751570395154,416.6869176962472 379.08184421259926,400 402.1751570395154,383.3130823037528 462.63423493321574,373" fill="lightpink" stroke="lightcoral" stroke-width="6"/>
      <text x="500" y="400" text-anchor="middle" dominant-baseline="central" fill="indianred" font-family="Times,serif" font-size="14">Songs&#160;and&#160;Dances&#160;of&#160;Death</text>
    </g>
    <!-- Edge: edge1 (node_0 -> node_1) -->
    <g class="edge" id="edge1">
      <title>node_0-&gt;node_1</title>
      <path d="M -77.22828938038737 30.891315752154956 C -89.35690781698948 35.74276312679579 -166.4140966526938 52.86513541821549 -150 60 C -135.24372710922827 66.41424325902427 -31.677978486644022 70.5229774894765 9.830131534576966 72.94657871167996" fill="none" stroke="darkgrey"/>
      <polygon points="19.746030257672675,73.60085275908948 9.537290713778779,76.43486703656535 9.998164828719446,69.45005529606885 19.746030257672675,73.60085275908948" fill="none" stroke="darkgrey"/>
      <text x="-107.38740380897478" y="79.37313446398636" text-anchor="middle" dominant-baseline="central" fill="darkgrey" font-family="Times,serif" font-size="14">C1-&gt;C2</text>
    </g>
    <!-- Edge: edge2 (node_1 -> node_2) -->
    <g class="edge" id="edge2">
      <title>node_1-&gt;node_2</title>
      <path d="M 46.30974257546248 101.47610296981502 C 30.2581188128854 107.89675247484584 -55.557018997331525 131.8506590741765 -50 140 C -45.14872241532958 147.11437462824392 33.5750909963382 148.3944804747605 67.86975783586331 149.75504477052675" fill="none" stroke="peru" stroke-width="1.25"/>
      <polygon points="77.76251591918472,150.2731916895199 67.5931377694127,153.24535387334157 67.95927061397305,146.25493566409727 77.76251591918472,150.2731916895199" fill="none" stroke="peru" stroke-width="1.25"/>
      <text x="-40.51686114793152" y="159.0521623251728" text-anchor="middle" dominant-baseline="central" fill="peru" font-family="Times,serif" font-size="14">C2-&gt;C3</text>
    </g>
    <!-- Edge: edge3 (node_2 -> node_3) -->
    <g class="edge" id="edge3">
      <title>node_2-&gt;node_3</title>
      <path d="M 125.91437331285607 189.63425067485758 C 113.26197776071339 194.69520889571464 38.05239555214268 212.97104177914292 50 220 C 60.52583951856231 226.1925121925751 147.97295280541783 229.11124214183286 185.45773624286713 231.06392185568515" fill="none" stroke="darkgoldenrod" stroke-width="1.5"/>
      <polygon points="195.3339343845312,231.66913545778783 185.13857938844194,234.55092943094377 185.5667363531036,227.56403587131288 195.3339343845312,231.66913545778783" fill="none" stroke="darkgoldenrod" stroke-width="1.5"/>
      <text x="80.48178673381194" y="238.69993648960403" text-anchor="middle" dominant-baseline="central" fill="darkgoldenrod" font-family="Times,serif" font-size="14">C3-&gt;C4</text>
    </g>
    <!-- Edge: edge4 (node_3 -> node_4) -->
    <g class="edge" id="edge4">
      <title>node_3-&gt;node_4</title>
      <path d="M 242.46589674442123 263.0136413022315 C 227.05491395368435 269.1780344185263 139.48720686480607 291.76170480963077 150 300 C 159.28279633837624 307.2744146530961 253.23458898274535 309.78720619998967 292.9398586877989 311.70342975380436" fill="none" stroke="limegreen" stroke-width="1.75"/>
      <polygon points="302.89850702463906,312.2881592760498 292.7105484785333,315.1959936356431 293.120852079496,308.208028913706 302.89850702463906,312.2881592760498" fill="none" stroke="limegreen" stroke-width="1.75"/>
      <text x="174.42723821121402" y="319.1119144172004" text-anchor="middle" dominant-baseline="central" fill="limegreen" font-family="Times,serif" font-size="14">C4-&gt;C5</text>
    </g>
    <!-- Edge: edge5 (node_4 -> node_5) -->
    <g class="edge" id="edge5">
      <title>node_4-&gt;node_5</title>
      <path d="M 335.77476585014267 345.69009365994293 C 321.47897154178554 351.4084113832858 240.7733459109409 372.3998864048639 250 380 C 258.0364157115705 386.61969894136354 341.29886412690644 388.8459198367375 378.18991850193936 390.5535725518793" fill="none" stroke="dodgerblue" stroke-width="2"/>
      <polygon points="388.11249874458804,391.11866190244126 377.9296738371605,394.0444228128155 378.3276778149403,387.0557467698392 388.11249874458804,391.11866190244126" fill="none" stroke="dodgerblue" stroke-width="2"/>
      <text x="271.8877178923129" y="398.6972350106984" text-anchor="middle" dominant-baseline="central" fill="dodgerblue" font-family="Times,serif" font-size="14">C5-&gt;C6</text>
    </g>
  </g>
</svg>
