<svg width="520.6004995819468" height="435.6681903797099" viewBox="0 0 520.6004995819468 435.6681903797099" xmlns="http://www.w3.org/2000/svg" xmlns:xlink="http://www.w3.org/1999/xlink">
  <!-- Generated by: https://github.com/CyberZHG/SVGDiagram -->
  <g id="graph0" class="graph" transform="translate(250.86954494481816,222.8890935295552) scale(1.0)">
    <rect x="-250.86954494481816" y="-222.8890935295552" width="520.6004995819468" height="435.6681903797099" fill="white"/>
    <!-- Node: node_c -->
    <g class="node" id="node_c">
      <title>node_c</title>
      <rect x="-43" y="-19.400000000000002" width="86" height="38.800000000000004" fill="none" stroke="black"/>
      <text x="0" y="0" text-anchor="middle" dominant-baseline="central" font-family="Times,serif" font-size="14">
        <tspan x="0" dy="-0.6em">C6:</tspan><tspan x="0" dy="1.2em">Dual Birth</tspan>
      </text>
    </g>
    <!-- Node: node_0 -->
    <g class="node" id="node_0">
      <title>node_0</title>
      <rect x="-12.481598042104938" y="-166.26261315234845" width="86" height="38.800000000000004" fill="none" stroke="peru"/>
      <text x="30.518401957895062" y="-146.86261315234844" text-anchor="middle" dominant-baseline="central" fill="saddlebrown" font-family="Times,serif" font-size="14">
        <tspan x="30.518401957895062" dy="-0.6em">Adamah's</tspan><tspan x="30.518401957895062" dy="1.2em">Redemption</tspan>
      </text>
    </g>
    <!-- Node: node_1 -->
    <g class="node" id="node_1">
      <title>node_1</title>
      <rect x="85.10535008483055" y="-27.358318253418467" width="128" height="22" fill="none" stroke="darkgoldenrod"/>
      <text x="149.10535008483055" y="-16.358318253418467" text-anchor="middle" dominant-baseline="central" fill="goldenrod" font-family="Times,serif" font-size="14">Unground Visions</text>
    </g>
    <!-- Node: node_2 -->
    <g class="node" id="node_2">
      <title>node_2</title>
      <rect x="4.633772298982244" y="117.352616472948" width="114" height="38.800000000000004" fill="none" stroke="limegreen"/>
      <text x="61.633772298982244" y="136.752616472948" text-anchor="middle" dominant-baseline="central" fill="olivedrab" font-family="Times,serif" font-size="14">
        <tspan x="61.633772298982244" dy="-0.6em">Flame Mirror's</tspan><tspan x="61.633772298982244" dy="1.2em">Revelation</tspan>
      </text>
    </g>
    <!-- Node: node_3 -->
    <g class="node" id="node_3">
      <title>node_3</title>
      <rect x="-150.51358394918776" y="81.47608328417914" width="79" height="38.800000000000004" fill="none" stroke="dodgerblue"/>
      <text x="-111.01358394918776" y="100.87608328417915" text-anchor="middle" dominant-baseline="central" fill="royalblue" font-family="Times,serif" font-size="14">
        <tspan x="-111.01358394918776" dy="-0.6em">Emanare's</tspan><tspan x="-111.01358394918776" dy="1.2em">Source</tspan>
      </text>
    </g>
    <!-- Node: node_4 -->
    <g class="node" id="node_4">
      <title>node_4</title>
      <rect x="-194.24394039252007" y="-93.80776835136017" width="128" height="38.800000000000004" fill="none" stroke="lightcoral"/>
      <text x="-130.24394039252007" y="-74.40776835136016" text-anchor="middle" dominant-baseline="central" fill="indianred" font-family="Times,serif" font-size="14">
        <tspan x="-130.24394039252007" dy="-0.6em">Scouring Flame's</tspan><tspan x="-130.24394039252007" dy="1.2em">Sundering</tspan>
      </text>
    </g>
    <!-- Edge: edge1 (node_c -> node_0) -->
    <g class="edge" id="edge1">
      <title>node_c->node_0</title>
      <line x1="4.094576350691894" y1="-19.704183182463538" x2="24.040634586656964" y2="-115.68988514235723" stroke="peru"/>
      <polygon points="26.0751947171833,-125.48072601918045 27.467428893545094,-114.977789096673 20.613840279768837,-116.40198118804143 26.0751947171833,-125.48072601918045" fill="peru" stroke="peru"/>
      <text x="27.99506913138185" y="-70.78476274029988" text-anchor="middle" dominant-baseline="central" fill="peru" font-family="Times,serif" font-size="14">C1</text>
    </g>
    <!-- Edge: edge2 (node_0 -> node_0) -->
    <g class="edge" id="edge2">
      <title>node_0->node_0</title>
      <path d="M 34.02730887399352 -166.76261315234845 C 45.27730887399352 -183.63761315234845 41.768401957895065 -196.76261315234845 30.518401957895065 -196.76261315234845 C 21.675901957895064 -196.76261315234845 17.615818300757102 -188.65404065234844 21.745914755502056 -176.98927992734843" fill="none" stroke="peru"/>
      <polygon points="26.316846549120232,-168.10836736175065 18.628518751672175,-175.3980597886633 24.852505396851353,-178.60149392106422 26.316846549120232,-168.10836736175065" fill="peru" stroke="peru"/>
      <text x="30.219744908108545" y="-207.8890935295552" text-anchor="middle" dominant-baseline="central" fill="peru" font-family="Times,serif" font-size="14">C1</text>
    </g>
    <!-- Edge: edge3 (node_c -> node_1) -->
    <g class="edge" id="edge3">
      <title>node_c->node_1</title>
      <line x1="43.301192866553556" y1="-4.7505652430361724" x2="73.16047640144315" y2="-8.026421291158458" stroke="darkgoldenrod"/>
      <polygon points="83.10083307376519,-9.116975841386354 73.54217049402291,-4.547296455845744 72.77878230886338,-11.505546126471172 83.10083307376519,-9.116975841386354" fill="darkgoldenrod" stroke="darkgoldenrod"/>
      <text x="65.37595418937558" y="5.034424898522782" text-anchor="middle" dominant-baseline="central" fill="darkgoldenrod" font-family="Times,serif" font-size="14">C2</text>
    </g>
    <!-- Edge: edge4 (node_1 -> node_1) -->
    <g class="edge" id="edge4">
      <title>node_1->node_1</title>
      <path d="M 213.60535008483055 -4.985227997722479 C 230.48035008483055 6.264772002277521 243.60535008483055 -5.108318253418467 243.60535008483055 -16.358318253418467 C 243.60535008483055 -25.099568253418465 235.68140695983058 -33.915131410399546 224.23130914420554 -32.13483283591311" fill="none" stroke="darkgoldenrod"/>
      <polygon points="215.00358924341492,-28.310842355150285 222.90185372163285,-35.37252899731454 225.58168076158972,-28.90580439857709 215.00358924341492,-28.310842355150285" fill="darkgoldenrod" stroke="darkgoldenrod"/>
      <text x="254.7309546371286" y="-16.65664540110728" text-anchor="middle" dominant-baseline="central" fill="darkgoldenrod" font-family="Times,serif" font-size="14">C2</text>
    </g>
    <!-- Edge: edge5 (node_c -> node_2) -->
    <g class="edge" id="edge5">
      <title>node_c->node_2</title>
      <line x1="8.886659677356182" y1="19.71766317803607" x2="47.934113143213814" y2="106.35590109341823" stroke="limegreen"/>
      <polygon points="52.0430312964793,115.47274219161476 44.743218758845025,107.79402244706114 51.1250075275826,104.9177797397753 52.0430312964793,115.47274219161476" fill="limegreen" stroke="limegreen"/>
      <text x="17.553400144647107" y="74.35410008716963" text-anchor="middle" dominant-baseline="central" fill="limegreen" font-family="Times,serif" font-size="14">C3</text>
    </g>
    <!-- Edge: edge6 (node_2 -> node_2) -->
    <g class="edge" id="edge6">
      <title>node_2->node_2</title>
      <path d="M 58.12486538288379 156.652616472948 C 46.87486538288379 173.527616472948 50.383772298982244 186.652616472948 61.633772298982244 186.652616472948 C 70.47627229898225 186.652616472948 74.5363559561202 178.54404397294803 70.40625950137526 166.87928324794802" fill="none" stroke="limegreen"/>
      <polygon points="65.83532770775709,157.9983706823502 73.52365550520516,165.28806310926285 67.29966886002599,168.49149724166378 65.83532770775709,157.9983706823502" fill="limegreen" stroke="limegreen"/>
      <text x="61.93242934876876" y="197.77909685015476" text-anchor="middle" dominant-baseline="central" fill="limegreen" font-family="Times,serif" font-size="14">C3</text>
    </g>
    <!-- Edge: edge7 (node_c -> node_3) -->
    <g class="edge" id="edge7">
      <title>node_c->node_3</title>
      <line x1="-21.751824235885305" y1="19.765498555621097" x2="-80.5926761619629" y2="73.23314159761016" stroke="dodgerblue"/>
      <polygon points="-87.99358175857542,79.95821381655543 -82.94645143859374,70.64282463879577 -78.23890088533206,75.82345855642453 -87.99358175857542,79.95821381655543" fill="dodgerblue" stroke="dodgerblue"/>
      <text x="-65.95659628160682" y="38.93808853208312" text-anchor="middle" dominant-baseline="central" fill="dodgerblue" font-family="Times,serif" font-size="14">C4</text>
    </g>
    <!-- Edge: edge8 (node_3 -> node_3) -->
    <g class="edge" id="edge8">
      <title>node_3->node_3</title>
      <path d="M -114.52249086528622 120.77608328417915 C -125.77249086528622 137.65108328417915 -122.26358394918776 150.77608328417915 -111.01358394918776 150.77608328417915 C -102.17108394918776 150.77608328417915 -98.1110002920498 142.66751078417914 -102.24109674679475 131.00275005917914" fill="none" stroke="dodgerblue"/>
      <polygon points="-106.81202854041292,122.12183749358135 -99.12370074296487,129.411529920494 -105.34768738814404,132.61496405289492 -106.81202854041292,122.12183749358135" fill="dodgerblue" stroke="dodgerblue"/>
      <text x="-110.71492689940125" y="161.90256366138593" text-anchor="middle" dominant-baseline="central" fill="dodgerblue" font-family="Times,serif" font-size="14">C4</text>
    </g>
    <!-- Edge: edge9 (node_c -> node_4) -->
    <g class="edge" id="edge9">
      <title>node_c->node_4</title>
      <line x1="-34.65945724518085" y1="-19.80078964219819" x2="-85.41369538288646" y2="-48.79645410703845" stroke="lightcoral"/>
      <polygon points="-94.0966247423878,-53.75697199712913 -83.67751412135473,-51.835479382863916 -87.1498766444182,-45.757428831212984 -94.0966247423878,-53.75697199712913" fill="lightcoral" stroke="lightcoral"/>
      <text x="-57.67732813820796" y="-50.235043931392006" text-anchor="middle" dominant-baseline="central" fill="lightcoral" font-family="Times,serif" font-size="14">C5</text>
    </g>
    <!-- Edge: edge10 (node_4 -> node_4) -->
    <g class="edge" id="edge10">
      <title>node_4->node_4</title>
      <path d="M -194.74394039252007 -85.78085860705615 C -211.61894039252007 -97.03085860705615 -224.74394039252007 -85.65776835136018 -224.74394039252007 -74.40776835136018 C -224.74394039252007 -65.66651835136018 -216.81999726752008 -56.8509551943791 -205.3698994518951 -58.631253768865534" fill="none" stroke="lightcoral"/>
      <polygon points="-196.14217955110445,-62.45524424962836 -204.04044402932234,-55.39355760746409 -206.72027106927925,-61.86028220620153 -196.14217955110445,-62.45524424962836" fill="lightcoral" stroke="lightcoral"/>
      <text x="-235.86954494481816" y="-74.10944120367137" text-anchor="middle" dominant-baseline="central" fill="lightcoral" font-family="Times,serif" font-size="14">C5</text>
    </g>
  </g>
</svg>
