<svg width="834.4543219698696" height="492.3675323681472" viewBox="0 0 834.4543219698696 492.3675323681472" xmlns="http://www.w3.org/2000/svg" xmlns:xlink="http://www.w3.org/1999/xlink">
  <!-- Generated by: https://github.com/CyberZHG/SVGDiagram -->
  <g id="graph0" class="graph" transform="translate(171.77966421815944,46.18376618407357) scale(1.0)">
    <!-- Node: node_0 -->
    <g class="node" id="node_0">
      <title>node_0</title>
      <polygon points="8.503688472232546e-15,-38.18376618407357 132.07870774972125,-11.79943266011817 81.62913057949187,30.891315752154956 -81.62913057949186,30.891315752154956 -132.07870774972125,-11.799432660118164" fill="floralwhite" stroke="darkgrey"/>
      <text x="0" y="0" text-anchor="middle" dominant-baseline="central" font-family="Times,serif" font-size="14">Part&#160;the&#160;Veil&#160;of&#160;Snow</text>
    </g>
    <!-- Node: node_1 -->
    <g class="node" id="node_1">
      <title>node_1</title>
      <polygon points="100,41.81623381592643 194.55030407143067,60.90811690796322 194.5503040714307,99.09188309203678 100,118.18376618407356 5.449695928569333,99.0918830920368 5.44969592856932,60.90811690796321" fill="lightsalmon" stroke="peru" stroke-width="2"/>
      <text x="100" y="80" text-anchor="middle" dominant-baseline="central" fill="saddlebrown" font-family="Times,serif" font-size="14">The&#160;Devil's&#160;Wall</text>
    </g>
    <!-- Node: node_2 -->
    <g class="node" id="node_2">
      <title>node_2</title>
      <polygon points="200,121.81623381592644 308.5774505648613,136.19281118767177 335.3938662780236,168.4966873132496 260.2559391522843,194.40238459111544 139.7440608477157,194.40238459111544 64.60613372197642,168.4966873132496 91.42254943513872,136.19281118767177" fill="papayawhip" stroke="darkgoldenrod" stroke-width="3"/>
      <text x="200" y="160" text-anchor="middle" dominant-baseline="central" fill="goldenrod" font-family="Times,serif" font-size="14">Stranger&#160;in&#160;the&#160;Night</text>
    </g>
    <!-- Node: node_3 -->
    <g class="node" id="node_3">
      <title>node_3</title>
      <polygon points="300,201.81623381592644 402.40000000000003,213 444.81546878700493,240 402.40000000000003,267 300,278.1837661840736 197.60000000000002,267 155.18453121299507,240 197.59999999999997,213" fill="lightgreen" stroke="limegreen" stroke-width="4"/>
      <text x="300" y="240" text-anchor="middle" dominant-baseline="central" fill="olivedrab" font-family="Times,serif" font-size="14">Night&#160;on&#160;Bald&#160;Mountain</text>
    </g>
    <!-- Node: node_4 -->
    <g class="node" id="node_4">
      <title>node_4</title>
      <polygon points="400,281.8162338159264 462.5418801276732,290.7495380973361 495.81971946803463,313.3694585856755 484.26244715174136,339.09188309203677 433.2778393403614,355.8810033169884 366.7221606596386,355.8810033169884 315.73755284825864,339.0918830920368 304.18028053196537,313.3694585856755 337.45811987232673,290.7495380973361" fill="deepskyblue" stroke="dodgerblue" stroke-width="5"/>
      <text x="400" y="320" text-anchor="middle" dominant-baseline="central" fill="royalblue" font-family="Times,serif" font-size="14">Exile's&#160;Shadow</text>
    </g>
    <!-- Node: node_5 -->
    <g class="node" id="node_5">
      <title>node_5</title>
      <polygon points="500,361.8162338159264 595.5941956888142,369.108684247845 654.6746577517101,388.20056733988184 654.6746577517101,411.79943266011816 595.5941956888142,430.891315752155 500,438.1837661840736 404.4058043111857,430.891315752155 345.3253422482898,411.79943266011816 345.3253422482898,388.20056733988184 404.4058043111857,369.1086842478451" fill="lightpink" stroke="lightcoral" stroke-width="6"/>
      <text x="500" y="400" text-anchor="middle" dominant-baseline="central" fill="indianred" font-family="Times,serif" font-size="14">Songs&#160;and&#160;Dances&#160;of&#160;Death</text>
    </g>
    <!-- Edge: edge1 (node_0 -> node_1) -->
    <g class="edge" id="edge1">
      <title>node_0-&gt;node_1</title>
      <path d="M -77.22828938038737 30.891315752154956 C -89.35690781698948 35.74276312679579 -163.77966421815944 53.075890012978235 -150 60 C -137.72231918161995 66.16938199843639 -44.482998870369364 69.57216261255702 -5.976527000379838 71.70676405234708" fill="none" stroke="darkgrey"/>
      <polygon points="3.939224495610793,72.33957869950494 -6.263386563668478,75.1955772242021 -5.817559621810647,68.20978891235684 3.939224495610793,72.33957869950494" fill="none" stroke="darkgrey"/>
      <text x="-115.52593300781506" y="78.8328502694428" text-anchor="middle" dominant-baseline="central" fill="darkgrey" font-family="Times,serif" font-size="14">C1-&gt;C2</text>
    </g>
    <!-- Edge: edge2 (node_1 -> node_2) -->
    <g class="edge" id="edge2">
      <title>node_1-&gt;node_2</title>
      <path d="M 36.563705302245204 105.37451787910193 C 22.136421085204333 111.14543156591827 -57.181358542867734 132.50039489239097 -50 140 C -43.737855350619334 146.53965565383507 33.757440111993155 148.2464983339219 67.82135211314402 149.7225215690443" fill="none" stroke="peru" stroke-width="1.25"/>
      <polygon points="77.76277206905621,150.26841666681653 67.585914214428,153.21486609056234 67.96971428370358,146.22539561656905 77.76277206905621,150.26841666681653" fill="none" stroke="peru" stroke-width="1.25"/>
      <text x="-34.662353390713164" y="158.54964505338518" text-anchor="middle" dominant-baseline="central" fill="peru" font-family="Times,serif" font-size="14">C2-&gt;C3</text>
    </g>
    <!-- Edge: edge3 (node_2 -> node_3) -->
    <g class="edge" id="edge3">
      <title>node_2-&gt;node_3</title>
      <path d="M 125.91437331285607 189.63425067485758 C 113.26197776071339 194.69520889571464 42.42699882185733 213.3210100407201 50 220 C 56.52792701555898 225.75728934489928 126.94350629658499 227.60035573441547 159.20833438717003 229.03575592372613" fill="none" stroke="darkgoldenrod" stroke-width="1.5"/>
      <polygon points="169.08553636289312,229.5826717903328 158.90732726895766,232.5244501028726 159.29433520591652,225.5351565150534 169.08553636289312,229.5826717903328" fill="none" stroke="darkgoldenrod" stroke-width="1.5"/>
      <text x="67.15715966008844" y="238.09002973682473" text-anchor="middle" dominant-baseline="central" fill="darkgoldenrod" font-family="Times,serif" font-size="14">C3-&gt;C4</text>
    </g>
    <!-- Edge: edge4 (node_3 -> node_4) -->
    <g class="edge" id="edge4">
      <title>node_3-&gt;node_4</title>
      <path d="M 225.0146672672949 269.99413309308204 C 212.51222272274575 274.9951109109017 136.57866861861834 292.9251201081059 150 300 C 161.85103560976003 306.24711894454254 253.83555697224915 309.5468190041882 293.04532856995684 311.6612418009412" fill="none" stroke="limegreen" stroke-width="1.75"/>
      <polygon points="302.89912551728384,312.27796173698255 292.7000270035345,315.14647868949226 293.13728069539354,308.1601485220184 302.89912551728384,312.27796173698255" fill="none" stroke="limegreen" stroke-width="1.75"/>
      <text x="184.33051587034396" y="318.90572894197135" text-anchor="middle" dominant-baseline="central" fill="limegreen" font-family="Times,serif" font-size="14">C4-&gt;C5</text>
    </g>
    <!-- Edge: edge5 (node_4 -> node_5) -->
    <g class="edge" id="edge5">
      <title>node_4-&gt;node_5</title>
      <path d="M 335.77476585014267 345.69009365994293 C 321.47897154178554 351.4084113832858 248.17071641306856 372.99167604503407 250 380 C 251.5183053771531 385.8169088826217 306.0590546385535 386.4211754849171 333.77914027654333 387.1961262561509" fill="none" stroke="dodgerblue" stroke-width="2"/>
      <polygon points="343.72603651048274,387.61321755040154 333.58818385747884,390.69119474102223 333.8814487720013,383.69734060400236 343.72603651048274,387.61321755040154" fill="none" stroke="dodgerblue" stroke-width="2"/>
      <text x="242.11539801948337" y="401.71008460016446" text-anchor="middle" dominant-baseline="central" fill="dodgerblue" font-family="Times,serif" font-size="14">C5-&gt;C6</text>
    </g>
  </g>
</svg>
