<svg width="842.099115516194" height="490.4986858301273" viewBox="0 0 842.099115516194 490.4986858301273" xmlns="http://www.w3.org/2000/svg" xmlns:xlink="http://www.w3.org/1999/xlink">
  <!-- Generated by: https://github.com/CyberZHG/SVGDiagram -->
  <g id="graph0" class="graph" transform="translate(171.46455584328814,46.18376618407357) scale(1.0)">
    <!-- Node: node_0 -->
    <g class="node" id="node_0">
      <title>node_0</title>
      <polygon points="8.503688472232546e-15,-38.18376618407357 132.07870774972125,-11.79943266011817 81.62913057949187,30.891315752154956 -81.62913057949186,30.891315752154956 -132.07870774972125,-11.799432660118164" fill="floralwhite" stroke="darkgrey"/>
      <text x="0" y="0" text-anchor="middle" dominant-baseline="central" font-family="Times,serif" font-size="14">Part&#160;the&#160;Veil&#160;of&#160;Snow</text>
    </g>
    <!-- Node: node_1 -->
    <g class="node" id="node_1">
      <title>node_1</title>
      <polygon points="154.58864350760146,46.93188847242709 209.17728701520295,79.99999999999999 154.58864350760152,113.0681115275729 45.41135649239859,113.06811152757292 -9.17728701520295,80.00000000000003 45.411356492398475,46.931888472427104" fill="lightsalmon" stroke="peru" stroke-width="2"/>
      <text x="100" y="80" text-anchor="middle" dominant-baseline="central" fill="saddlebrown" font-family="Times,serif" font-size="14">The&#160;Devil's&#160;Wall</text>
    </g>
    <!-- Node: node_2 -->
    <g class="node" id="node_2">
      <title>node_2</title>
      <polygon points="200,121.81623381592644 308.5774505648613,136.19281118767177 335.3938662780236,168.4966873132496 260.2559391522843,194.40238459111544 139.7440608477157,194.40238459111544 64.60613372197642,168.4966873132496 91.42254943513872,136.19281118767177" fill="papayawhip" stroke="darkgoldenrod" stroke-width="3"/>
      <text x="200" y="160" text-anchor="middle" dominant-baseline="central" fill="goldenrod" font-family="Times,serif" font-size="14">Stranger&#160;in&#160;the&#160;Night</text>
    </g>
    <!-- Node: node_3 -->
    <g class="node" id="node_3">
      <title>node_3</title>
      <polygon points="355.4184806549706,204.72279994833784 433.79204760334096,225.38770529605267 433.79204760334096,254.61229470394733 355.4184806549706,275.2772000516622 244.58151934502945,275.2772000516622 166.20795239665904,254.61229470394733 166.20795239665904,225.38770529605267 244.58151934502933,204.72279994833784" fill="lightgreen" stroke="limegreen" stroke-width="4"/>
      <text x="300" y="240" text-anchor="middle" dominant-baseline="central" fill="olivedrab" font-family="Times,serif" font-size="14">Night&#160;on&#160;Bald&#160;Mountain</text>
    </g>
    <!-- Node: node_4 -->
    <g class="node" id="node_4">
      <title>node_4</title>
      <polygon points="400,281.8162338159264 462.5418801276732,290.7495380973361 495.81971946803463,313.3694585856755 484.26244715174136,339.09188309203677 433.2778393403614,355.8810033169884 366.7221606596386,355.8810033169884 315.73755284825864,339.0918830920368 304.18028053196537,313.3694585856755 337.45811987232673,290.7495380973361" fill="deepskyblue" stroke="dodgerblue" stroke-width="5"/>
      <text x="400" y="320" text-anchor="middle" dominant-baseline="central" fill="royalblue" font-family="Times,serif" font-size="14">Exile's&#160;Shadow</text>
    </g>
    <!-- Node: node_5 -->
    <g class="node" id="node_5">
      <title>node_5</title>
      <polygon points="550.2568428116144,363.6850803539463 631.5741226480674,377.5561453600175 662.6345596729059,400 631.5741226480674,422.4438546399825 550.2568428116144,436.3149196460537 449.74315718838557,436.3149196460537 368.4258773519326,422.4438546399825 337.36544032709406,400 368.4258773519326,377.5561453600175 449.74315718838557,363.6850803539463" fill="lightpink" stroke="lightcoral" stroke-width="6"/>
      <text x="500" y="400" text-anchor="middle" dominant-baseline="central" fill="indianred" font-family="Times,serif" font-size="14">Songs&#160;and&#160;Dances&#160;of&#160;Death</text>
    </g>
    <!-- Edge: edge1 (node_0 -> node_1) -->
    <g class="edge" id="edge1">
      <title>node_0-&gt;node_1</title>
      <path d="M -77.22828938038737 30.891315752154956 C -89.35690781698948 35.74276312679579 -163.46455584328814 53.101098682967944 -150 60 C -138.01654529947356 66.14002217215852 -46.001873230378905 69.45974621671529 -7.861250698134514 71.55918279654827" fill="none" stroke="darkgrey"/>
      <polygon points="2.0485466290804886,72.18876040257106 -8.153243933899418,75.04768840255535 -7.709422920143444,68.06177236328399 2.0485466290804886,72.18876040257106" fill="none" stroke="darkgrey"/>
      <text x="-116.02558911940515" y="78.79493897737936" text-anchor="middle" dominant-baseline="central" fill="darkgrey" font-family="Times,serif" font-size="14">C1-&gt;C2</text>
    </g>
    <!-- Edge: edge2 (node_1 -> node_2) -->
    <g class="edge" id="edge2">
      <title>node_1-&gt;node_2</title>
      <path d="M 34.24313257560347 106.30274696975862 C 20.20261047966956 111.91895580813218 -57.56812066397469 132.65509974083375 -50 140 C -43.40059878101407 146.40475302599296 33.84377779381211 148.2119632611943 67.83792894805325 149.7158908350806" fill="none" stroke="peru" stroke-width="1.25"/>
      <polygon points="77.76283846362588,150.26721452718144 67.58410763148775,153.20718708604667 67.97235552696053,146.21796226696543 77.76283846362588,150.26721452718144" fill="none" stroke="peru" stroke-width="1.25"/>
      <text x="-33.15552216076455" y="158.46766550042426" text-anchor="middle" dominant-baseline="central" fill="peru" font-family="Times,serif" font-size="14">C2-&gt;C3</text>
    </g>
    <!-- Edge: edge3 (node_2 -> node_3) -->
    <g class="edge" id="edge3">
      <title>node_2-&gt;node_3</title>
      <path d="M 125.91437331285607 189.63425067485758 C 113.26197776071339 194.69520889571464 43.284403486032836 213.38960241385413 50 220 C 55.755266212469856 225.66511073132702 122.77001816157791 227.31014263114443 154.0092034412967 228.64002835803151" fill="none" stroke="darkgoldenrod" stroke-width="1.5"/>
      <polygon points="163.9409176317792,229.17461115528513 153.76725422687636,232.13207170848625 154.14349043797696,225.14218999893944 163.9409176317792,229.17461115528513" fill="none" stroke="darkgoldenrod" stroke-width="1.5"/>
      <text x="64.89472227708806" y="238.04246377160348" text-anchor="middle" dominant-baseline="central" fill="darkgoldenrod" font-family="Times,serif" font-size="14">C3-&gt;C4</text>
    </g>
    <!-- Edge: edge4 (node_3 -> node_4) -->
    <g class="edge" id="edge4">
      <title>node_3-&gt;node_4</title>
      <path d="M 224.8280714688874 270.068771412445 C 212.35672622407284 275.0573095103708 136.54756931888377 292.93755982799973 150 300 C 161.87849629142565 306.23613467187624 253.84198277175892 309.5442486843843 293.04645629777076 311.6607907098156" fill="none" stroke="limegreen" stroke-width="1.75"/>
      <polygon points="302.89913239958526,312.2778518099529 292.6999146117429,315.1459446459957 293.13745881912945,308.1596326670914 302.89913239958526,312.2778518099529" fill="none" stroke="limegreen" stroke-width="1.75"/>
      <text x="184.3445020324858" y="318.8998211066835" text-anchor="middle" dominant-baseline="central" fill="limegreen" font-family="Times,serif" font-size="14">C4-&gt;C5</text>
    </g>
    <!-- Edge: edge5 (node_4 -> node_5) -->
    <g class="edge" id="edge5">
      <title>node_4-&gt;node_5</title>
      <path d="M 335.77476585014267 345.69009365994293 C 321.47897154178554 351.4084113832858 247.03304721533078 372.90066250921507 250 380 C 252.48630643355278 385.94924481727776 311.41886613244696 386.77661954863606 340.60655440616733 387.7012601451971" fill="none" stroke="dodgerblue" stroke-width="2"/>
      <polygon points="350.55246695311064,388.14975538911193 340.40495179639345,391.19572586569166 340.7202853195916,384.202831989109 350.55246695311064,388.14975538911193" fill="none" stroke="dodgerblue" stroke-width="2"/>
      <text x="250.05207413160295" y="399.76463882218684" text-anchor="middle" dominant-baseline="central" fill="dodgerblue" font-family="Times,serif" font-size="14">C5-&gt;C6</text>
    </g>
  </g>
</svg>
