<svg width="529.6003241815847" height="462.8676536818406" viewBox="0 0 529.6003241815847 462.8676536818406" xmlns="http://www.w3.org/2000/svg" xmlns:xlink="http://www.w3.org/1999/xlink">
  <!-- Generated by: https://github.com/CyberZHG/SVGDiagram -->
  <g id="graph0" class="graph" transform="translate(255.36945724463712,236.48882518062052) scale(1.0)">
    <rect x="-255.36945724463712" y="-236.48882518062052" width="529.6003241815847" height="462.8676536818406" fill="white"/>
    <!-- Node: node_c -->
    <g class="node" id="node_c">
      <title>node_c</title>
      <rect x="-43" y="-22" width="86" height="44" fill="none" stroke="black"/>
      <text x="0" y="-11" text-anchor="middle" dominant-baseline="central" font-family="Times,serif" font-size="14">C6</text>
      <line x1="-43" y1="0" x2="43" y2="0" stroke="black"/>
      <text x="0" y="11" text-anchor="middle" dominant-baseline="central" font-family="Times,serif" font-size="14">Dual Birth</text>
    </g>
    <!-- Node: node_0 -->
    <g class="node" id="node_0">
      <title>node_0</title>
      <rect x="-12.481598042104938" y="-179.86261315234844" width="86" height="66" fill="none" stroke="peru"/>
      <text x="30.518401957895065" y="-168.86261315234844" text-anchor="middle" dominant-baseline="central" fill="saddlebrown" font-family="Times,serif" font-size="14">C1</text>
      <line x1="-12.481598042104938" y1="-157.86261315234844" x2="73.51840195789507" y2="-157.86261315234844" stroke="peru"/>
      <text x="30.518401957895065" y="-146.86261315234844" text-anchor="middle" dominant-baseline="central" fill="saddlebrown" font-family="Times,serif" font-size="14">Adamah's</text>
      <line x1="-12.481598042104938" y1="-135.86261315234844" x2="73.51840195789507" y2="-135.86261315234844" stroke="peru"/>
      <text x="30.518401957895065" y="-124.86261315234844" text-anchor="middle" dominant-baseline="central" fill="saddlebrown" font-family="Times,serif" font-size="14">Redemption</text>
    </g>
    <!-- Node: node_1 -->
    <g class="node" id="node_1">
      <title>node_1</title>
      <rect x="80.60535008483055" y="-38.35831825341847" width="137" height="44" fill="none" stroke="darkgoldenrod"/>
      <text x="149.10535008483055" y="-27.358318253418467" text-anchor="middle" dominant-baseline="central" fill="goldenrod" font-family="Times,serif" font-size="14">C2</text>
      <line x1="80.60535008483055" y1="-16.358318253418467" x2="217.60535008483055" y2="-16.358318253418467" stroke="darkgoldenrod"/>
      <text x="116.60535008483055" y="-5.358318253418467" text-anchor="middle" dominant-baseline="central" fill="goldenrod" font-family="Times,serif" font-size="14">Unground</text>
      <line x1="152.60535008483055" y1="-16.358318253418467" x2="152.60535008483055" y2="5.641681746581533" stroke="darkgoldenrod"/>
      <text x="185.10535008483055" y="-5.358318253418467" text-anchor="middle" dominant-baseline="central" fill="goldenrod" font-family="Times,serif" font-size="14">Visions</text>
    </g>
    <!-- Node: node_2 -->
    <g class="node" id="node_2">
      <title>node_2</title>
      <rect x="0.13377229898224385" y="103.752616472948" width="123" height="66" fill="none" stroke="limegreen"/>
      <text x="61.63377229898225" y="114.752616472948" text-anchor="middle" dominant-baseline="central" fill="olivedrab" font-family="Times,serif" font-size="14">C3</text>
      <line x1="0.13377229898224385" y1="125.752616472948" x2="123.13377229898225" y2="125.752616472948" stroke="limegreen"/>
      <text x="25.633772298982244" y="136.752616472948" text-anchor="middle" dominant-baseline="central" fill="olivedrab" font-family="Times,serif" font-size="14">Flame</text>
      <line x1="51.133772298982244" y1="125.752616472948" x2="51.133772298982244" y2="147.752616472948" stroke="limegreen"/>
      <text x="87.13377229898225" y="136.752616472948" text-anchor="middle" dominant-baseline="central" fill="olivedrab" font-family="Times,serif" font-size="14">Mirror's</text>
      <line x1="0.13377229898224385" y1="147.752616472948" x2="123.13377229898225" y2="147.752616472948" stroke="limegreen"/>
      <text x="61.63377229898225" y="158.752616472948" text-anchor="middle" dominant-baseline="central" fill="olivedrab" font-family="Times,serif" font-size="14">Revelation</text>
    </g>
    <!-- Node: node_3 -->
    <g class="node" id="node_3">
      <title>node_3</title>
      <rect x="-150.51358394918776" y="67.87608328417915" width="79" height="66" fill="none" stroke="dodgerblue"/>
      <text x="-111.01358394918776" y="78.87608328417915" text-anchor="middle" dominant-baseline="central" fill="royalblue" font-family="Times,serif" font-size="14">C4</text>
      <line x1="-150.51358394918776" y1="89.87608328417915" x2="-71.51358394918776" y2="89.87608328417915" stroke="dodgerblue"/>
      <text x="-111.01358394918776" y="100.87608328417915" text-anchor="middle" dominant-baseline="central" fill="royalblue" font-family="Times,serif" font-size="14">Emanare's</text>
      <line x1="-150.51358394918776" y1="111.87608328417915" x2="-71.51358394918776" y2="111.87608328417915" stroke="dodgerblue"/>
      <text x="-111.01358394918776" y="122.87608328417915" text-anchor="middle" dominant-baseline="central" fill="royalblue" font-family="Times,serif" font-size="14">Source</text>
    </g>
    <!-- Node: node_4 -->
    <g class="node" id="node_4">
      <title>node_4</title>
      <rect x="-198.74394039252007" y="-107.40776835136016" width="137" height="66" fill="none" stroke="lightcoral"/>
      <text x="-130.24394039252007" y="-96.40776835136016" text-anchor="middle" dominant-baseline="central" fill="indianred" font-family="Times,serif" font-size="14">C5</text>
      <line x1="-198.74394039252007" y1="-85.40776835136016" x2="-61.743940392520074" y2="-85.40776835136016" stroke="lightcoral"/>
      <text x="-162.74394039252007" y="-74.40776835136016" text-anchor="middle" dominant-baseline="central" fill="indianred" font-family="Times,serif" font-size="14">Scouring</text>
      <line x1="-126.74394039252007" y1="-85.40776835136016" x2="-126.74394039252007" y2="-63.40776835136016" stroke="lightcoral"/>
      <text x="-94.24394039252007" y="-74.40776835136016" text-anchor="middle" dominant-baseline="central" fill="indianred" font-family="Times,serif" font-size="14">Flame's</text>
      <line x1="-198.74394039252007" y1="-63.40776835136016" x2="-61.743940392520074" y2="-63.40776835136016" stroke="lightcoral"/>
      <text x="-130.24394039252007" y="-52.40776835136016" text-anchor="middle" dominant-baseline="central" fill="indianred" font-family="Times,serif" font-size="14">Sundering</text>
    </g>
    <!-- Edge: edge1 (node_c -> node_0) -->
    <g class="edge" id="edge1">
      <title>node_c->node_0</title>
      <line x1="4.6348625636861795" y1="-22.304183182463536" x2="21.214522087917622" y2="-102.08988514235723" stroke="peru"/>
      <polygon points="23.24908221844396,-111.88072601918046 24.641316394805752,-101.37778909667301 17.787727781029496,-102.80198118804144 23.24908221844396,-111.88072601918046" fill="peru" stroke="peru"/>
      <text x="26.852155988509324" y="-65.28476274029988" text-anchor="middle" dominant-baseline="central" fill="peru" font-family="Times,serif" font-size="14">C1</text>
    </g>
    <!-- Edge: edge2 (node_0 -> node_0) -->
    <g class="edge" id="edge2">
      <title>node_0->node_0</title>
      <path d="M 36.42535581162864 -180.36261315234844 C 47.67535581162864 -197.23761315234844 41.768401957895065 -210.36261315234844 30.51840195789507 -210.36261315234844 C 21.70965195789507 -210.36261315234844 16.1766647766634 -202.31582002734842 19.590691297508855 -190.72269021797345" fill="none" stroke="peru"/>
      <polygon points="23.951374820525473,-181.72464090050946 16.440639912833603,-189.19718137523282 22.739890144184038,-192.24995822964448 23.951374820525473,-181.72464090050946" fill="peru" stroke="peru"/>
      <text x="30.219846880485203" y="-221.48882518062052" text-anchor="middle" dominant-baseline="central" fill="peru" font-family="Times,serif" font-size="14">C1</text>
    </g>
    <!-- Edge: edge3 (node_c -> node_1) -->
    <g class="edge" id="edge3">
      <title>node_c->node_1</title>
      <line x1="43.301192866553556" y1="-4.7505652430361724" x2="68.66047640144315" y2="-7.532727187637003" stroke="darkgoldenrod"/>
      <polygon points="78.60083307376519,-8.6232817378649 69.04217049402291,-4.0536023523242894 68.27878230886338,-11.011852022949718 78.60083307376519,-8.6232817378649" fill="darkgoldenrod" stroke="darkgoldenrod"/>
      <text x="63.12595418937558" y="5.281271950283509" text-anchor="middle" dominant-baseline="central" fill="darkgoldenrod" font-family="Times,serif" font-size="14">C2</text>
    </g>
    <!-- Edge: edge4 (node_1 -> node_1) -->
    <g class="edge" id="edge4">
      <title>node_1->node_1</title>
      <path d="M 218.10535008483055 -4.191756584534385 C 234.98035008483055 7.058243415465615 248.10535008483055 -5.108318253418467 248.10535008483055 -16.358318253418467 C 248.10535008483055 -25.088318253418468 240.20179008483055 -34.37024969294041 228.77550048483053 -32.833522017846235" fill="none" stroke="darkgoldenrod"/>
      <polygon points="219.5087925502818,-29.091594641273797 227.47084770436484,-36.08127830531324 230.09184997793034,-29.590488901707197 219.5087925502818,-29.091594641273797" fill="darkgoldenrod" stroke="darkgoldenrod"/>
      <text x="259.23086693694756" y="-16.65661283129681" text-anchor="middle" dominant-baseline="central" fill="darkgoldenrod" font-family="Times,serif" font-size="14">C2</text>
    </g>
    <!-- Edge: edge5 (node_c -> node_2) -->
    <g class="edge" id="edge5">
      <title>node_c->node_2</title>
      <line x1="10.058467662536877" y1="22.31766317803607" x2="41.804655989960935" y2="92.75590109341823" stroke="limegreen"/>
      <polygon points="45.91357414322642,101.87274219161476 38.613761605592146,94.19402244706114 44.995550374329724,91.3177797397753 45.91357414322642,101.87274219161476" fill="limegreen" stroke="limegreen"/>
      <text x="15.074575560611015" y="68.85410008716963" text-anchor="middle" dominant-baseline="central" fill="limegreen" font-family="Times,serif" font-size="14">C3</text>
    </g>
    <!-- Edge: edge6 (node_2 -> node_2) -->
    <g class="edge" id="edge6">
      <title>node_2->node_2</title>
      <path d="M 55.72681844524867 170.252616472948 C 44.47681844524867 187.127616472948 50.383772298982244 200.252616472948 61.633772298982244 200.252616472948 C 70.44252229898225 200.252616472948 75.9755094802139 192.205823347948 72.56148295936845 180.612693538573" fill="none" stroke="limegreen"/>
      <polygon points="68.20079943635183,171.61464422110902 75.71153434404368,179.0871846958324 69.41228411269324,182.13996155024404 68.20079943635183,171.61464422110902" fill="limegreen" stroke="limegreen"/>
      <text x="61.93232737639211" y="211.37882850122008" text-anchor="middle" dominant-baseline="central" fill="limegreen" font-family="Times,serif" font-size="14">C3</text>
    </g>
    <!-- Edge: edge7 (node_c -> node_3) -->
    <g class="edge" id="edge7">
      <title>node_c->node_3</title>
      <line x1="-24.613110170776036" y1="22.365498555621095" x2="-65.62594973330367" y2="59.633141597610155" stroke="dodgerblue"/>
      <polygon points="-73.02685532991619,66.35821381655543 -67.97972500993451,57.04282463879578 -63.27217445667282,62.22345855642454 -73.02685532991619,66.35821381655543" fill="dodgerblue" stroke="dodgerblue"/>
      <text x="-59.90387603472258" y="33.43808853208312" text-anchor="middle" dominant-baseline="central" fill="dodgerblue" font-family="Times,serif" font-size="14">C4</text>
    </g>
    <!-- Edge: edge8 (node_3 -> node_3) -->
    <g class="edge" id="edge8">
      <title>node_3->node_3</title>
      <path d="M -116.92053780292133 134.37608328417915 C -128.17053780292133 151.25108328417915 -122.26358394918776 164.37608328417915 -111.01358394918776 164.37608328417915 C -102.20483394918776 164.37608328417915 -96.67184676795608 156.32929015917915 -100.08587328880157 144.73616034980418" fill="none" stroke="dodgerblue"/>
      <polygon points="-104.44655681181817,135.73811103234016 -96.9358219041263,143.21065150706352 -103.23507213547674,146.26342836147518 -104.44655681181817,135.73811103234016" fill="dodgerblue" stroke="dodgerblue"/>
      <text x="-110.71502887177789" y="175.5022953124512" text-anchor="middle" dominant-baseline="central" fill="dodgerblue" font-family="Times,serif" font-size="14">C4</text>
    </g>
    <!-- Edge: edge9 (node_c -> node_4) -->
    <g class="edge" id="edge9">
      <title>node_c->node_4</title>
      <line x1="-39.21051760518911" y1="-22.400789642198188" x2="-61.60814888438174" y2="-35.196454107038456" stroke="lightcoral"/>
      <polygon points="-70.29107824388308,-40.15697199712913 -59.87196762285,-38.23547938286392 -63.344330145913474,-32.15742883121299 -70.29107824388308,-40.15697199712913" fill="lightcoral" stroke="lightcoral"/>
      <text x="-48.050085068959724" y="-44.73504393139201" text-anchor="middle" dominant-baseline="central" fill="lightcoral" font-family="Times,serif" font-size="14">C5</text>
    </g>
    <!-- Edge: edge10 (node_4 -> node_4) -->
    <g class="edge" id="edge10">
      <title>node_4->node_4</title>
      <path d="M -199.24394039252007 -86.57433002024425 C -216.11894039252007 -97.82433002024425 -229.24394039252007 -85.65776835136018 -229.24394039252007 -74.40776835136018 C -229.24394039252007 -65.67776835136017 -221.34038039252007 -56.39583691183824 -209.91409079252008 -57.93256458693241" fill="none" stroke="lightcoral"/>
      <polygon points="-200.64738285797134,-61.674491963504856 -208.60943801205437,-54.68480829946542 -211.23044028561986,-61.175597703071475 -200.64738285797134,-61.674491963504856" fill="lightcoral" stroke="lightcoral"/>
      <text x="-240.36945724463712" y="-74.10947377348184" text-anchor="middle" dominant-baseline="central" fill="lightcoral" font-family="Times,serif" font-size="14">C5</text>
    </g>
  </g>
</svg>
